P3
# Created by GIMP version 2.10.12 PNM plug-in
23 32
255
0
255
255
0
255
255
103
107
79
147
123
99
91
99
71
91
99
71
103
107
79
103
107
79
91
99
71
91
99
71
91
99
71
103
107
79
103
107
79
111
115
87
139
139
139
159
159
159
167
167
167
171
171
171
139
139
139
131
131
131
127
127
127
0
255
255
0
255
255
127
127
127
167
167
167
91
99
71
55
63
39
19
35
11
31
67
23
71
79
51
71
79
51
71
79
51
47
99
35
63
131
47
75
159
63
91
191
79
75
159
63
63
131
47
55
115
43
103
107
79
99
99
99
119
119
119
139
139
139
171
171
171
119
119
119
71
79
51
183
183
183
191
191
191
111
111
111
55
55
55
39
83
27
39
83
27
47
99
35
55
115
43
63
131
47
83
175
71
83
175
71
91
191
79
95
207
87
91
191
79
63
131
47
55
115
43
39
83
27
39
83
27
91
91
91
119
119
119
127
127
127
59
59
59
27
27
27
183
183
183
139
139
139
151
151
151
167
167
167
175
151
127
147
123
99
147
123
99
147
123
99
147
123
99
147
123
99
103
107
79
107
107
107
99
99
99
99
99
99
83
87
59
83
87
59
87
87
87
99
99
99
91
91
91
71
71
71
27
27
27
0
0
0
27
27
27
183
183
183
123
127
99
103
107
79
103
107
79
103
107
79
91
99
71
91
99
71
63
71
43
63
71
43
63
71
43
63
71
43
71
71
71
71
71
71
71
71
71
59
59
59
55
55
55
55
55
55
27
27
27
27
27
27
0
0
0
19
19
19
27
27
27
55
55
55
191
191
191
159
135
111
155
127
107
167
143
119
159
135
111
123
127
99
111
115
87
103
107
79
83
87
59
83
87
59
71
79
51
71
79
51
63
71
43
55
63
39
23
51
15
35
35
35
19
19
19
0
0
0
19
19
19
27
27
27
27
27
27
27
27
27
47
47
47
183
183
183
183
159
135
175
151
127
183
159
135
175
151
127
159
135
111
123
127
99
123
127
99
111
115
87
111
115
87
103
107
79
91
99
71
83
87
59
83
87
59
55
63
39
59
59
59
39
39
39
19
35
11
19
35
11
19
19
19
19
19
19
27
27
27
35
35
35
159
159
159
147
147
147
159
159
159
179
179
179
151
151
151
167
143
119
147
123
99
147
123
99
147
123
99
123
127
99
123
127
99
111
115
87
111
115
87
103
107
79
91
99
71
91
99
71
71
79
51
55
63
39
19
35
11
11
11
11
19
19
19
27
27
27
55
55
55
139
139
139
111
115
87
123
127
99
139
115
91
103
107
79
103
107
79
91
99
71
91
99
71
91
99
71
83
87
59
71
79
51
71
79
51
63
71
43
71
79
51
63
71
43
55
63
39
47
47
47
19
35
11
11
23
7
0
0
0
27
27
27
35
35
35
59
59
59
159
159
159
111
115
87
103
107
79
119
95
75
95
75
55
71
79
51
63
71
43
63
71
43
55
63
39
39
39
39
35
35
35
27
27
27
19
19
19
19
19
19
19
19
19
11
11
11
11
11
11
19
19
19
11
11
11
11
11
11
27
27
27
47
47
47
55
55
55
167
167
167
123
127
99
123
127
99
167
143
119
139
115
91
103
107
79
83
87
59
71
79
51
55
63
39
39
39
39
39
39
39
27
27
27
19
35
11
19
19
19
11
23
7
11
11
11
0
0
0
19
19
19
19
19
19
19
19
19
19
19
19
27
27
27
55
55
55
167
167
167
123
127
99
123
127
99
191
167
143
159
135
111
111
115
87
111
115
87
103
107
79
91
99
71
83
87
59
83
87
59
71
79
51
63
71
43
55
63
39
23
51
15
35
35
35
19
19
19
0
0
0
0
0
0
0
0
0
19
19
19
27
27
27
59
59
59
167
167
167
123
127
99
123
127
99
191
167
143
159
135
111
123
127
99
123
127
99
111
115
87
103
107
79
91
99
71
83
87
59
71
79
51
63
71
43
55
63
39
23
51
15
35
35
35
19
19
19
0
0
0
0
0
0
0
0
0
19
19
19
27
27
27
55
55
55
171
171
171
123
127
99
123
127
99
175
151
127
159
135
111
123
127
99
123
127
99
111
115
87
103
107
79
91
99
71
83
87
59
71
79
51
63
71
43
55
63
39
23
51
15
35
35
35
19
19
19
0
0
0
0
0
0
0
0
0
11
11
11
27
27
27
55
55
55
183
183
183
159
135
111
155
127
107
167
143
119
159
135
111
123
127
99
123
127
99
111
115
87
103
107
79
91
99
71
83
87
59
71
79
51
63
71
43
55
63
39
23
51
15
35
35
35
19
19
19
0
0
0
0
0
0
0
0
0
7
7
7
19
19
19
47
47
47
183
183
183
183
159
135
175
151
127
175
151
127
167
143
119
159
135
111
123
127
99
123
127
99
139
115
91
111
115
87
103
107
79
91
99
71
83
87
59
83
87
59
55
63
39
59
59
59
39
39
39
19
35
11
11
23
7
19
19
19
19
35
11
0
0
0
35
35
35
159
159
159
147
147
147
167
167
167
167
167
167
175
151
127
167
143
119
147
123
99
147
123
99
147
123
99
123
127
99
123
127
99
111
115
87
111
115
87
103
107
79
91
99
71
91
99
71
71
79
51
55
63
39
19
35
11
11
11
11
11
11
11
11
11
11
47
47
47
139
139
139
111
115
87
123
127
99
139
115
91
103
107
79
103
107
79
91
99
71
91
99
71
91
99
71
83
87
59
71
79
51
71
79
51
63
71
43
71
79
51
63
71
43
55
63
39
47
47
47
19
35
11
11
23
7
0
0
0
11
11
11
11
11
11
47
47
47
159
159
159
111
115
87
123
99
79
119
95
75
83
87
59
63
71
43
55
63
39
55
55
55
47
47
47
39
39
39
35
35
35
27
27
27
19
19
19
19
19
19
19
19
19
11
11
11
11
11
11
19
19
19
11
11
11
11
11
11
27
27
27
35
35
35
35
35
35
167
167
167
123
127
99
147
123
99
167
143
119
139
115
91
83
87
59
71
79
51
59
59
59
47
47
47
39
39
39
39
39
39
27
27
27
19
35
11
19
19
19
11
23
7
11
11
11
0
0
0
19
19
19
19
19
19
19
19
19
19
19
19
27
27
27
55
55
55
167
167
167
123
127
99
147
123
99
191
167
143
159
135
111
111
115
87
111
115
87
103
107
79
91
99
71
83
87
59
83
87
59
71
79
51
63
71
43
55
63
39
23
51
15
35
35
35
19
19
19
0
0
0
0
0
0
0
0
0
19
19
19
27
27
27
55
55
55
167
167
167
123
127
99
147
123
99
191
167
143
159
135
111
123
127
99
111
115
87
111
115
87
103
107
79
91
99
71
83
87
59
71
79
51
63
71
43
55
63
39
23
51
15
35
35
35
19
19
19
0
0
0
0
0
0
0
0
0
19
19
19
27
27
27
55
55
55
183
183
183
155
127
107
159
131
99
175
151
127
159
135
111
123
127
99
123
127
99
111
115
87
103
107
79
91
99
71
83
87
59
71
79
51
63
71
43
55
63
39
23
51
15
35
35
35
19
19
19
0
0
0
0
0
0
0
0
0
19
19
19
27
27
27
47
47
47
183
183
183
175
151
127
167
143
119
183
159
135
167
143
119
123
127
99
123
127
99
123
127
99
139
115
91
111
115
87
103
107
79
91
99
71
83
87
59
83
87
59
55
63
39
59
59
59
39
39
39
19
35
11
11
23
7
19
19
19
19
19
19
19
35
11
35
35
35
159
159
159
167
143
119
175
151
127
167
167
167
167
143
119
155
127
107
147
123
99
147
123
99
147
123
99
123
127
99
123
127
99
111
115
87
111
115
87
103
107
79
91
99
71
91
99
71
71
79
51
55
63
39
19
35
11
11
11
11
19
19
19
27
27
27
47
47
47
139
139
139
111
115
87
123
127
99
139
115
91
103
107
79
103
107
79
91
99
71
91
99
71
91
99
71
83
87
59
71
79
51
71
79
51
63
71
43
71
79
51
63
71
43
55
63
39
47
47
47
19
35
11
11
23
7
0
0
0
19
19
19
35
35
35
55
55
55
159
159
159
111
115
87
103
107
79
119
95
75
95
75
55
71
79
51
63
71
43
55
63
39
47
47
47
39
39
39
35
35
35
27
27
27
19
19
19
19
19
19
19
19
19
11
11
11
11
11
11
19
19
19
11
11
11
0
0
0
19
19
19
35
35
35
47
47
47
167
167
167
123
127
99
123
127
99
167
143
119
147
123
99
91
99
71
83
87
59
67
67
67
47
47
47
47
47
47
39
39
39
27
27
27
19
35
11
19
19
19
11
23
7
11
11
11
0
0
0
19
19
19
19
19
19
0
0
0
19
19
19
27
27
27
47
47
47
167
167
167
155
127
107
123
127
99
175
151
127
159
135
111
123
127
99
111
115
87
103
107
79
91
99
71
91
99
71
83
87
59
71
79
51
63
71
43
55
63
39
23
51
15
35
35
35
19
19
19
0
0
0
0
0
0
0
0
0
19
19
19
27
27
27
55
55
55
147
147
147
159
135
111
123
127
99
167
143
119
167
143
119
123
127
99
123
127
99
139
115
91
103
107
79
103
107
79
91
99
71
83
87
59
71
79
51
71
79
51
55
63
39
47
47
47
35
35
35
0
0
0
0
0
0
0
0
0
19
19
19
11
11
11
47
47
47
111
115
87
123
127
99
139
115
91
139
115
91
123
127
99
139
115
91
123
99
79
123
99
79
87
87
87
83
87
59
71
79
51
71
79
51
63
71
43
63
71
43
55
63
39
39
39
39
35
35
35
11
11
11
11
11
11
11
11
11
27
27
27
0
0
0
35
35
35
0
255
255
0
255
255
83
87
59
83
87
59
83
87
59
83
87
59
47
47
47
35
35
35
35
35
35
35
35
35
19
19
19
19
19
19
19
19
19
19
19
19
0
0
0
0
0
0
0
0
0
0
0
0
0
0
0
0
0
0
35
35
35
0
255
255
0
255
255
