P3
# Created by GIMP version 2.10.12 PNM plug-in
64 72
255
106
82
65
115
90
57
106
82
65
106
82
65
106
82
65
106
82
65
106
82
65
106
82
65
106
82
65
106
82
65
106
82
65
115
90
57
115
90
57
98
82
49
115
90
57
115
90
57
115
90
57
115
90
57
115
90
57
115
90
57
123
98
74
115
90
57
115
90
57
115
90
57
98
82
49
106
82
65
106
82
65
115
90
57
98
82
49
98
82
49
106
82
65
106
82
65
106
82
65
106
82
65
106
82
65
106
82
65
98
82
49
82
65
49
82
65
49
90
65
41
90
65
41
90
65
41
82
65
49
82
65
49
82
65
49
90
65
41
90
74
49
98
82
49
90
74
49
82
65
49
82
57
24
90
74
49
90
74
49
90
74
49
90
74
49
90
65
41
90
65
41
82
57
24
82
57
24
98
82
49
82
57
24
90
65
41
90
65
41
106
82
65
106
82
65
106
82
65
115
90
57
115
90
57
106
82
65
106
82
65
123
98
74
106
82
65
106
82
65
115
90
57
115
90
57
115
90
57
115
90
57
106
82
65
115
90
57
115
90
57
106
82
65
115
90
57
123
98
74
115
90
57
106
82
65
115
90
57
115
90
57
106
82
65
98
82
49
106
82
65
106
82
65
115
90
57
98
82
49
98
82
49
106
82
65
106
82
65
106
82
65
106
82
65
106
82
65
115
90
57
106
82
65
98
82
49
106
82
65
90
74
49
90
74
49
90
74
49
98
82
49
106
82
65
106
82
65
98
82
49
98
82
49
98
82
49
106
82
65
82
65
49
82
65
49
106
82
65
106
82
65
90
74
49
90
74
49
98
82
49
106
82
65
106
82
65
106
82
65
106
82
65
98
82
49
106
82
65
98
82
49
106
82
65
106
82
65
106
82
65
115
90
57
106
82
65
123
98
74
115
90
57
123
98
74
106
82
65
123
98
74
115
90
57
115
90
57
123
98
74
106
82
65
115
90
57
115
90
57
115
90
57
115
90
57
115
90
57
115
90
57
106
82
65
98
82
49
115
90
57
115
90
57
106
82
65
98
82
49
106
82
65
106
82
65
115
90
57
106
82
65
98
82
49
90
74
49
98
82
49
106
82
65
115
90
57
106
82
65
106
82
65
106
82
65
98
82
49
98
82
49
90
74
49
90
74
49
90
74
49
98
82
49
106
82
65
106
82
65
106
82
65
106
82
65
106
82
65
106
82
65
90
74
49
90
74
49
98
82
49
106
82
65
90
74
49
82
65
49
98
82
49
106
82
65
115
90
57
106
82
65
115
90
57
98
82
49
106
82
65
106
82
65
106
82
65
106
82
65
106
82
65
115
90
57
131
106
74
115
90
57
115
90
57
123
98
74
123
98
74
123
98
74
131
106
74
123
98
74
115
90
57
115
90
57
115
90
57
115
90
57
115
90
57
115
90
57
106
82
65
115
90
57
106
82
65
106
82
65
123
98
74
123
98
74
106
82
65
98
82
49
106
82
65
106
82
65
106
82
65
106
82
65
98
82
49
98
82
49
98
82
49
115
90
57
106
82
65
115
90
57
106
82
65
115
90
57
98
82
49
106
82
65
90
74
49
90
74
49
82
65
49
98
82
49
106
82
65
106
82
65
106
82
65
106
82
65
98
82
49
98
82
49
90
74
49
90
74
49
98
82
49
98
82
49
90
74
49
82
65
49
90
74
49
106
82
65
106
82
65
115
90
57
106
82
65
98
82
49
98
82
49
98
82
49
106
82
65
106
82
65
106
82
65
115
90
57
123
98
74
106
82
65
115
90
57
115
90
57
123
98
74
123
98
74
123
98
74
115
90
57
106
82
65
106
82
65
115
90
57
115
90
57
123
98
74
106
82
65
98
82
49
106
82
65
106
82
65
123
98
74
123
98
74
123
98
74
106
82
65
98
82
49
106
82
65
106
82
65
115
90
57
106
82
65
98
82
49
106
82
65
106
82
65
115
90
57
106
82
65
115
90
57
115
90
57
106
82
65
98
82
49
98
82
49
90
74
49
90
74
49
82
65
49
106
82
65
106
82
65
106
82
65
106
82
65
106
82
65
115
90
57
98
82
49
98
82
49
90
74
49
90
74
49
106
82
65
90
74
49
82
65
49
90
74
49
106
82
65
106
82
65
115
90
57
98
82
49
106
82
65
98
82
49
90
74
49
106
82
65
106
82
65
106
82
65
115
90
57
115
90
57
115
90
57
115
90
57
123
98
74
123
98
74
123
98
74
131
106
74
115
90
57
98
82
49
106
82
65
115
90
57
123
98
74
115
90
57
115
90
57
106
82
65
115
90
57
106
82
65
115
90
57
115
90
57
123
98
74
106
82
65
98
82
49
106
82
65
106
82
65
123
98
74
106
82
65
98
82
49
106
82
65
106
82
65
106
82
65
115
90
57
115
90
57
106
82
65
90
74
49
106
82
65
106
82
65
82
65
49
90
74
49
90
74
49
98
82
49
106
82
65
106
82
65
106
82
65
106
82
65
115
90
57
98
82
49
106
82
65
90
74
49
90
74
49
98
82
49
82
65
49
82
65
49
90
74
49
106
82
65
115
90
57
115
90
57
98
82
49
106
82
65
90
74
49
98
82
49
90
74
49
106
82
65
106
82
65
115
90
57
123
98
74
115
90
57
115
90
57
115
90
57
131
106
82
115
90
57
131
106
74
123
98
74
98
82
49
106
82
65
115
90
57
115
90
57
115
90
57
115
90
57
106
82
65
106
82
65
106
82
65
123
98
74
115
90
57
123
98
74
98
82
49
98
82
49
106
82
65
115
90
57
115
90
57
106
82
65
98
82
49
98
82
49
106
82
65
106
82
65
115
90
57
115
90
57
106
82
65
90
74
49
106
82
65
98
82
49
82
65
49
90
74
49
82
65
49
106
82
65
106
82
65
106
82
65
106
82
65
106
82
65
123
98
74
98
82
49
106
82
65
90
74
49
90
74
49
98
82
49
82
65
49
82
65
49
90
74
49
123
98
74
115
90
57
115
90
57
98
82
49
90
74
49
90
74
49
90
74
49
90
74
49
106
82
65
106
82
65
123
98
74
106
82
65
115
90
57
115
90
57
115
90
57
131
106
82
123
98
74
131
106
74
123
98
74
106
82
65
106
82
65
123
98
74
106
82
65
106
82
65
123
98
74
98
82
49
98
82
49
106
82
65
123
98
74
115
90
57
123
98
74
98
82
49
98
82
49
106
82
65
115
90
57
106
82
65
106
82
65
98
82
49
106
82
65
106
82
65
123
98
74
123
98
74
98
82
49
106
82
65
90
74
49
106
82
65
98
82
49
90
74
49
90
74
49
90
74
49
106
82
65
106
82
65
106
82
65
98
82
49
98
82
49
123
98
74
98
82
49
98
82
49
90
74
49
90
74
49
98
82
49
90
74
49
82
65
49
90
74
49
123
98
74
115
90
57
115
90
57
106
82
65
90
74
49
82
65
49
106
82
65
90
74
49
90
74
49
106
82
65
115
90
57
106
82
65
115
90
57
106
82
65
115
90
57
131
106
74
123
98
74
148
123
98
123
98
74
98
82
49
106
82
65
115
90
57
98
82
49
115
90
57
123
98
74
98
82
49
106
82
65
115
90
57
115
90
57
123
98
74
123
98
74
98
82
49
106
82
65
106
82
65
106
82
65
106
82
65
98
82
49
98
82
49
98
82
49
106
82
65
123
98
74
123
98
74
98
82
49
106
82
65
90
74
49
106
82
65
98
82
49
90
74
49
90
74
49
82
65
49
106
82
65
98
82
49
115
90
57
106
82
65
106
82
65
115
90
57
90
74
49
106
82
65
90
74
49
82
65
49
106
82
65
82
65
49
82
65
49
90
74
49
123
98
74
123
98
74
115
90
57
106
82
65
82
65
49
82
65
49
106
82
65
90
74
49
90
74
49
106
82
65
106
82
65
106
82
65
115
90
57
98
82
49
115
90
57
131
106
74
131
106
74
131
106
74
123
98
74
98
82
49
115
90
57
106
82
65
106
82
65
115
90
57
115
90
57
98
82
49
90
74
49
106
82
65
123
98
74
131
106
74
123
98
74
106
82
65
106
82
65
106
82
65
106
82
65
106
82
65
98
82
49
98
82
49
90
74
49
106
82
65
123
98
74
123
98
74
115
90
57
106
82
65
82
65
49
90
74
49
106
82
65
90
74
49
90
74
49
90
74
49
98
82
49
90
74
49
106
82
65
106
82
65
106
82
65
123
98
74
90
74
49
106
82
65
90
74
49
82
65
49
90
74
49
82
65
49
82
65
49
90
74
49
123
98
74
131
106
74
115
90
57
106
82
65
82
65
49
90
74
49
90
74
49
90
74
49
90
74
49
106
82
65
106
82
65
106
82
65
123
98
74
98
82
49
115
90
57
148
123
98
123
98
74
131
106
74
106
82
65
98
82
49
106
82
65
115
90
57
106
82
65
115
90
57
115
90
57
98
82
49
90
74
49
106
82
65
115
90
57
123
98
74
123
98
74
90
74
49
90
74
49
106
82
65
115
90
57
106
82
65
98
82
49
98
82
49
98
82
49
98
82
49
123
98
74
123
98
74
115
90
57
106
82
65
82
65
49
90
74
49
106
82
65
90
74
49
82
65
49
90
74
49
98
82
49
90
74
49
115
90
57
115
90
57
115
90
57
123
98
74
90
74
49
106
82
65
90
74
49
82
65
49
82
65
49
82
65
49
82
65
49
115
74
41
123
98
74
131
106
74
131
106
74
106
82
65
82
65
49
90
74
49
90
74
49
90
74
49
90
74
49
98
82
49
90
74
49
106
82
65
106
82
65
90
74
49
115
90
57
131
106
74
123
98
74
131
106
74
106
82
65
98
82
49
98
82
49
115
90
57
106
82
65
115
90
57
115
90
57
98
82
49
90
74
49
106
82
65
115
90
57
131
106
74
123
98
74
90
74
49
90
74
49
106
82
65
106
82
65
106
82
65
98
82
49
98
82
49
90
74
49
90
74
49
123
98
74
123
98
74
123
98
74
106
82
65
82
65
49
90
74
49
90
74
49
90
74
49
82
65
49
90
74
49
98
82
49
90
74
49
115
90
57
115
90
57
115
90
57
123
98
74
90
74
49
98
82
49
90
74
49
82
65
49
90
74
49
82
65
49
82
65
49
115
74
41
123
98
74
131
106
74
131
106
74
106
82
65
82
65
49
90
74
49
82
65
49
90
74
49
90
74
49
106
82
65
90
74
49
106
82
65
98
82
49
90
74
49
106
82
65
131
106
74
123
98
74
131
106
74
106
82
65
90
74
49
98
82
49
98
82
49
106
82
65
115
90
57
123
98
74
106
82
65
90
65
41
106
82
65
115
90
57
131
106
74
123
98
74
90
74
49
90
74
49
106
82
65
115
90
57
115
90
57
90
74
49
106
82
65
90
74
49
90
74
49
123
98
74
131
106
82
131
106
82
106
82
65
82
65
49
90
74
49
82
65
49
90
74
49
82
65
49
90
74
49
98
82
49
90
74
49
123
98
74
123
98
74
123
98
74
115
90
57
90
74
49
106
82
65
90
74
49
82
65
49
82
65
49
82
65
49
82
65
49
115
74
41
106
82
65
115
90
57
115
90
57
106
82
65
82
65
49
82
65
49
82
65
49
90
74
49
90
74
49
90
74
49
90
74
49
106
82
65
98
82
49
90
74
49
90
74
49
90
74
49
90
74
49
90
74
49
90
74
49
82
65
49
90
74
49
106
82
65
106
82
65
123
98
74
123
98
74
98
82
49
90
65
41
90
74
49
90
74
49
90
74
49
90
74
49
90
74
49
90
74
49
106
82
65
90
98
65
115
90
57
98
82
49
98
82
49
90
74
49
90
74
49
90
74
49
90
74
49
90
74
49
90
74
49
82
65
49
90
74
49
82
65
49
90
74
49
82
65
49
90
74
49
98
82
49
90
74
49
82
65
49
82
65
49
82
65
49
82
65
49
90
74
49
106
82
65
90
74
49
82
65
49
82
65
49
82
65
49
82
65
49
115
74
41
82
65
49
82
65
49
82
65
49
82
65
49
82
65
49
82
65
49
82
65
49
90
74
49
90
74
49
90
74
49
90
74
49
106
82
65
98
82
49
90
74
49
82
65
49
74
49
24
57
41
16
57
41
16
74
49
24
82
65
49
90
74
49
106
82
65
106
82
65
115
90
57
115
90
57
98
82
49
82
65
49
74
49
24
74
49
24
74
49
24
74
49
24
82
65
49
90
74
49
106
82
65
115
90
57
106
82
65
98
82
49
106
82
65
90
74
49
57
65
41
74
49
24
74
49
24
74
49
24
74
49
24
82
65
49
90
74
49
82
65
49
82
65
49
82
65
49
90
74
49
98
82
49
82
65
49
74
49
24
57
41
16
57
41
16
74
49
24
82
65
49
82
57
24
82
65
49
82
65
49
90
74
49
82
65
49
82
65
49
74
49
24
57
41
16
57
41
16
57
41
16
57
41
16
74
49
24
82
65
49
74
49
24
90
74
49
90
74
49
90
74
49
106
82
65
98
82
49
98
82
49
90
74
49
82
57
24
74
49
24
74
49
24
74
49
24
74
49
24
82
65
49
82
65
49
98
82
49
106
82
65
106
82
65
115
90
57
98
82
49
82
65
49
74
49
24
74
49
24
74
49
24
74
49
24
82
65
49
90
74
49
106
82
65
106
82
65
115
90
57
98
82
49
106
82
65
90
74
49
82
65
49
82
65
49
74
49
24
74
49
24
82
57
24
82
57
24
106
82
65
82
65
49
82
65
49
82
65
49
90
74
49
90
74
49
82
65
49
82
57
24
57
41
16
57
41
16
82
57
24
74
49
24
82
65
49
82
65
49
82
65
49
90
74
49
82
65
49
74
49
24
74
49
24
74
49
24
57
41
16
49
41
16
57
41
16
74
49
24
57
65
41
57
65
41
90
74
49
90
74
49
90
74
49
106
82
65
98
82
49
98
82
49
90
74
49
82
57
24
74
49
24
74
49
24
74
49
24
74
49
24
82
65
49
82
65
49
98
82
49
82
57
24
82
57
24
115
90
57
98
82
49
82
65
49
74
49
24
74
49
24
74
49
24
74
49
24
82
65
49
90
74
49
106
82
65
106
82
65
115
90
57
98
82
49
106
82
65
90
74
49
82
65
49
82
65
49
74
49
24
74
49
24
82
57
24
82
57
24
106
82
65
82
65
49
82
65
49
82
65
49
90
74
49
90
74
49
82
65
49
82
57
24
57
41
16
57
41
16
82
57
24
74
49
24
82
65
49
82
65
49
82
65
49
90
74
49
82
65
49
74
49
24
74
49
24
74
49
24
57
41
16
49
41
16
57
41
16
74
49
24
57
65
41
57
65
41
90
74
49
82
57
24
82
57
24
82
57
24
74
49
24
57
41
16
57
41
16
57
41
16
57
41
16
57
41
16
57
41
16
57
41
16
57
41
16
74
49
24
82
57
24
82
57
24
82
57
24
74
49
24
57
41
16
57
41
16
57
41
16
57
41
16
57
41
16
57
41
16
57
41
16
74
49
24
82
57
24
82
57
24
82
57
24
82
57
24
74
49
24
57
41
16
57
41
16
57
41
16
57
41
16
57
41
16
57
41
16
57
41
16
74
49
24
74
49
24
82
57
24
82
57
24
82
57
24
74
49
24
57
41
16
57
41
16
57
41
16
57
41
16
57
41
16
57
41
16
57
41
16
57
41
16
57
41
16
57
41
16
57
41
16
57
41
16
57
41
16
57
41
16
57
41
16
57
41
16
57
41
16
57
41
16
57
41
16
74
49
24
74
49
24
98
82
49
115
90
57
98
82
49
98
82
49
90
74
49
90
74
49
82
65
49
82
65
49
82
65
49
82
65
49
82
65
49
82
65
49
82
65
49
82
65
49
98
82
49
90
74
49
98
82
49
82
65
49
82
65
49
57
41
16
82
65
49
82
65
49
82
65
49
82
65
49
82
57
24
82
65
49
90
74
49
90
74
49
82
65
49
90
74
49
106
82
65
82
65
49
82
65
49
74
49
24
82
65
49
82
65
49
82
65
49
82
65
49
90
74
49
90
74
49
90
74
49
82
65
49
82
65
49
57
41
16
82
65
49
57
65
41
74
49
24
74
49
24
82
65
49
82
65
49
82
65
49
82
65
49
82
65
49
82
65
49
90
74
49
74
49
24
82
65
49
82
65
49
82
65
49
82
65
49
82
65
49
82
65
49
82
65
49
82
65
49
123
98
74
131
106
82
123
98
74
123
98
74
131
106
82
131
106
82
123
98
74
123
98
74
123
98
74
123
98
74
123
98
74
123
98
74
148
123
98
148
123
98
123
98
74
131
106
74
131
106
74
131
106
82
131
106
82
123
98
74
123
98
74
123
98
74
123
98
74
123
98
74
123
98
74
123
98
74
123
98
74
123
98
74
123
98
74
131
106
74
106
82
65
106
82
65
106
82
65
106
82
65
90
74
49
90
74
49
106
82
65
106
82
65
123
98
74
131
106
74
123
98
74
131
106
74
131
106
74
106
82
65
90
74
49
90
74
49
90
74
49
90
74
49
90
74
49
106
82
65
123
98
74
123
98
74
123
98
74
123
98
74
131
106
82
106
82
65
106
82
65
106
82
65
106
82
65
106
82
65
106
82
65
123
98
74
123
98
74
123
98
74
131
106
74
115
90
57
131
106
82
131
106
82
131
106
82
123
98
74
106
82
65
82
65
49
106
82
65
98
82
49
106
82
65
123
98
74
131
106
82
131
106
82
98
82
49
106
82
65
123
98
74
98
82
49
106
82
65
90
74
49
90
74
49
90
74
49
90
74
49
90
74
49
82
65
49
106
82
65
98
82
49
123
98
74
131
106
82
123
98
74
123
98
74
90
74
49
90
74
49
90
74
49
90
74
49
82
65
49
90
74
49
106
82
65
148
123
98
123
98
74
123
98
74
98
82
49
98
82
49
106
82
65
82
65
49
82
65
49
82
65
49
82
65
49
90
74
49
98
82
49
98
82
49
98
82
49
98
82
49
98
82
49
123
98
74
82
57
24
90
74
49
82
57
24
90
74
49
82
65
49
98
82
49
98
82
49
98
82
49
106
82
65
115
90
57
115
90
57
123
98
74
123
98
74
131
106
82
106
82
65
106
82
65
82
65
49
90
74
49
98
82
49
98
82
49
123
98
74
131
106
82
131
106
82
98
82
49
106
82
65
106
82
65
98
82
49
131
106
82
106
82
65
82
65
49
90
74
49
90
74
49
90
74
49
82
65
49
106
82
65
98
82
49
123
98
74
148
123
98
123
98
74
123
98
74
90
74
49
82
57
24
82
65
49
82
65
49
98
82
49
90
74
49
106
82
65
123
98
74
123
98
74
115
90
57
98
82
49
98
82
49
106
82
65
90
74
49
82
65
49
82
65
49
82
65
49
90
74
49
82
65
49
98
82
49
98
82
49
123
98
74
98
82
49
123
98
74
90
65
41
90
74
49
74
49
24
82
65
49
82
65
49
90
74
49
98
82
49
98
82
49
106
82
65
98
82
49
115
90
57
123
98
74
123
98
74
123
98
74
106
82
65
106
82
65
82
65
49
90
74
49
82
65
49
98
82
49
123
98
74
131
106
82
123
98
74
106
82
65
98
82
49
98
82
49
106
82
65
131
106
82
106
82
65
82
65
49
82
65
49
90
74
49
82
65
49
90
74
49
106
82
65
90
74
49
123
98
74
123
98
74
123
98
74
106
82
65
90
74
49
82
65
49
82
65
49
82
65
49
98
82
49
90
74
49
106
82
65
131
106
74
123
98
74
115
90
57
106
82
65
106
82
65
115
90
57
90
74
49
82
65
49
82
65
49
82
65
49
90
74
49
106
82
65
106
82
65
106
82
65
123
98
74
106
82
65
98
82
49
82
65
49
90
74
49
82
57
24
82
65
49
82
65
49
90
74
49
106
82
65
123
98
74
98
82
49
98
82
49
115
90
57
123
98
74
123
98
74
123
98
74
106
82
65
106
82
65
82
65
49
90
74
49
82
65
49
98
82
49
123
98
74
131
106
82
123
98
74
106
82
65
98
82
49
98
82
49
106
82
65
123
98
74
106
82
65
82
65
49
90
74
49
90
74
49
82
65
49
90
74
49
106
82
65
82
65
49
123
98
74
123
98
74
123
98
74
106
82
65
90
74
49
82
65
49
82
65
49
82
65
49
98
82
49
90
74
49
106
82
65
123
98
74
123
98
74
115
90
57
98
82
49
98
82
49
115
90
57
90
74
49
82
65
49
82
65
49
82
65
49
82
65
49
106
82
65
90
74
49
106
82
65
123
98
74
106
82
65
98
82
49
106
82
65
90
74
49
82
65
49
82
65
49
82
65
49
82
65
49
106
82
65
123
98
74
98
82
49
98
82
49
115
90
57
106
82
65
123
98
74
123
98
74
115
90
57
106
82
65
90
74
49
90
74
49
82
65
49
98
82
49
123
98
74
123
98
74
123
98
74
98
82
49
98
82
49
98
82
49
106
82
65
123
98
74
123
98
74
90
74
49
82
65
49
82
65
49
82
65
49
90
74
49
106
82
65
90
74
49
123
98
74
123
98
74
123
98
74
123
98
74
90
74
49
82
65
49
82
65
49
82
65
49
98
82
49
90
74
49
106
82
65
123
98
74
123
98
74
123
98
74
98
82
49
98
82
49
123
98
74
90
74
49
82
65
49
82
65
49
82
65
49
82
65
49
98
82
49
90
74
49
115
90
57
123
98
74
115
90
57
106
82
65
106
82
65
90
74
49
82
65
49
90
74
49
82
65
49
82
65
49
106
82
65
123
98
74
106
82
65
98
82
49
115
90
57
123
98
74
123
98
74
123
98
74
115
90
57
106
82
65
82
65
49
90
74
49
82
65
49
90
74
49
123
98
74
123
98
74
123
98
74
98
82
49
98
82
49
98
82
49
123
98
74
131
106
82
123
98
74
90
74
49
90
74
49
90
74
49
82
65
49
90
74
49
106
82
65
82
65
49
131
106
74
123
98
74
123
98
74
123
98
74
90
74
49
90
65
41
82
65
49
82
65
49
106
82
65
90
74
49
106
82
65
123
98
74
123
98
74
123
98
74
98
82
49
98
82
49
115
90
57
90
74
49
82
65
49
82
65
49
82
65
49
90
74
49
98
82
49
98
82
49
115
90
57
115
90
57
115
90
57
115
90
57
106
82
65
90
74
49
82
65
49
90
74
49
82
65
49
82
65
49
106
82
65
123
98
74
98
82
49
90
74
49
106
82
65
123
98
74
123
98
74
123
98
74
115
90
57
106
82
65
82
65
49
90
74
49
90
74
49
98
82
49
123
98
74
123
98
74
123
98
74
106
82
65
98
82
49
98
82
49
123
98
74
131
106
82
106
82
65
82
65
49
90
74
49
82
65
49
90
74
49
90
74
49
106
82
65
90
74
49
123
98
74
115
90
57
123
98
74
123
98
74
90
74
49
82
65
49
82
65
49
82
65
49
90
74
49
90
74
49
106
82
65
123
98
74
123
98
74
123
98
74
98
82
49
98
82
49
115
90
57
106
82
65
82
65
49
82
65
49
82
65
49
98
82
49
106
82
65
90
74
49
123
98
74
115
90
57
115
90
57
115
90
57
106
82
65
82
65
49
82
65
49
90
74
49
82
65
49
90
74
49
106
82
65
123
98
74
98
82
49
98
82
49
106
82
65
123
98
74
123
98
74
123
98
74
123
98
74
106
82
65
82
65
49
82
65
49
90
74
49
98
82
49
123
98
74
123
98
74
123
98
74
106
82
65
98
82
49
98
82
49
115
90
57
123
98
74
106
82
65
98
82
49
82
65
49
90
74
49
90
74
49
82
65
49
106
82
65
90
74
49
123
98
74
123
98
74
115
90
57
115
90
57
106
82
65
82
57
24
82
65
49
82
65
49
98
82
49
90
74
49
106
82
65
123
98
74
123
98
74
115
90
57
106
82
65
106
82
65
123
98
74
106
82
65
82
65
49
82
65
49
82
65
49
98
82
49
123
98
74
90
74
49
98
82
49
123
98
74
115
90
57
115
90
57
106
82
65
82
65
49
82
65
49
90
74
49
82
65
49
90
74
49
106
82
65
123
98
74
98
82
49
98
82
49
106
82
65
123
98
74
131
106
74
123
98
74
115
90
57
106
82
65
82
65
49
82
65
49
90
74
49
98
82
49
123
98
74
123
98
74
123
98
74
123
98
74
98
82
49
98
82
49
123
98
74
123
98
74
123
98
74
106
82
65
90
74
49
82
65
49
98
82
49
82
65
49
106
82
65
115
90
57
123
98
74
123
98
74
115
90
57
115
90
57
106
82
65
82
65
49
82
65
49
82
65
49
90
74
49
90
74
49
106
82
65
123
98
74
123
98
74
123
98
74
106
82
65
106
82
65
115
90
57
106
82
65
90
74
49
82
65
49
82
65
49
98
82
49
123
98
74
90
74
49
98
82
49
123
98
74
115
90
57
115
90
57
98
82
49
90
74
49
82
65
49
90
74
49
82
65
49
90
74
49
106
82
65
123
98
74
98
82
49
98
82
49
106
82
65
123
98
74
131
106
74
123
98
74
123
98
74
106
82
65
82
65
49
82
65
49
90
74
49
106
82
65
123
98
74
123
98
74
131
106
82
123
98
74
106
82
65
98
82
49
123
98
74
123
98
74
123
98
74
98
82
49
82
65
49
90
74
49
98
82
49
90
74
49
115
90
57
115
90
57
123
98
74
123
98
74
115
90
57
123
98
74
106
82
65
90
74
49
82
65
49
90
74
49
106
82
65
90
74
49
106
82
65
115
90
57
123
98
74
115
90
57
123
98
74
115
90
57
115
90
57
106
82
65
90
74
49
82
65
49
82
65
49
98
82
49
123
98
74
90
74
49
106
82
65
115
90
57
115
90
57
115
90
57
106
82
65
90
74
49
90
65
41
82
65
49
82
65
49
90
74
49
106
82
65
123
98
74
98
82
49
98
82
49
106
82
65
123
98
74
131
106
74
123
98
74
123
98
74
106
82
65
90
74
49
90
74
49
106
82
65
123
98
74
123
98
74
123
98
74
131
106
82
123
98
74
106
82
65
106
82
65
123
98
74
123
98
74
123
98
74
115
90
57
90
74
49
90
74
49
106
82
65
82
65
49
115
90
57
123
98
74
115
90
57
115
90
57
123
98
74
123
98
74
106
82
65
90
74
49
82
65
49
90
74
49
106
82
65
90
74
49
106
82
65
115
90
57
123
98
74
115
90
57
123
98
74
115
90
57
115
90
57
106
82
65
90
74
49
82
65
49
82
65
49
106
82
65
106
82
65
90
74
49
106
82
65
106
82
65
123
98
74
123
98
74
106
82
65
90
74
49
82
65
49
82
65
49
82
65
49
115
90
57
106
82
65
123
98
74
98
82
49
98
82
49
106
82
65
123
98
74
123
98
74
123
98
74
123
98
74
106
82
65
90
74
49
90
74
49
106
82
65
115
90
57
123
98
74
123
98
74
148
123
98
123
98
74
106
82
65
106
82
65
123
98
74
123
98
74
123
98
74
123
98
74
90
74
49
90
74
49
106
82
65
106
82
65
115
90
57
115
90
57
123
98
74
115
90
57
115
90
57
123
98
74
106
82
65
106
82
65
82
65
49
90
74
49
106
82
65
90
74
49
106
82
65
106
82
65
123
98
74
106
82
65
123
98
74
115
90
57
115
90
57
106
82
65
106
82
65
82
65
49
90
74
49
98
82
49
106
82
65
90
74
49
106
82
65
106
82
65
115
90
57
106
82
65
106
82
65
106
82
65
82
65
49
90
74
49
82
65
49
106
82
65
106
82
65
106
82
65
98
82
49
98
82
49
115
90
57
106
82
65
123
98
74
123
98
74
123
98
74
106
82
65
90
74
49
90
74
49
106
82
65
123
98
74
123
98
74
123
98
74
148
123
98
123
98
74
106
82
65
106
82
65
123
98
74
131
106
82
115
90
57
123
98
74
90
74
49
98
82
49
106
82
65
115
90
57
123
98
74
115
90
57
115
90
57
123
98
74
123
98
74
131
106
74
106
82
65
98
82
49
90
65
41
90
74
49
106
82
65
90
74
49
106
82
65
115
90
57
123
98
74
115
90
57
123
98
74
123
98
74
123
98
74
115
90
57
106
82
65
82
65
49
90
74
49
98
82
49
106
82
65
90
74
49
106
82
65
106
82
65
115
90
57
115
90
57
106
82
65
106
82
65
82
65
49
82
65
49
98
82
49
115
90
57
106
82
65
98
82
49
106
82
65
98
82
49
123
98
74
106
82
65
123
98
74
123
98
74
123
98
74
106
82
65
106
82
65
90
74
49
106
82
65
123
98
74
123
98
74
123
98
74
148
123
98
123
98
74
106
82
65
123
98
74
123
98
74
131
106
82
123
98
74
123
98
74
90
74
49
106
82
65
106
82
65
123
98
74
123
98
74
123
98
74
131
106
74
115
90
57
123
98
74
131
106
74
106
82
65
106
82
65
82
65
49
90
74
49
106
82
65
90
74
49
106
82
65
123
98
74
123
98
74
123
98
74
123
98
74
123
98
74
123
98
74
123
98
74
106
82
65
82
65
49
90
74
49
106
82
65
106
82
65
90
74
49
106
82
65
115
90
57
115
90
57
115
90
57
106
82
65
106
82
65
82
65
49
82
65
49
98
82
49
115
90
57
106
82
65
106
82
65
106
82
65
98
82
49
106
82
65
106
82
65
123
98
74
123
98
74
131
106
74
123
98
74
106
82
65
90
74
49
106
82
65
123
98
74
123
98
74
123
98
74
131
106
74
123
98
74
106
82
65
123
98
74
131
106
74
131
106
74
123
98
74
131
106
82
90
74
49
106
82
65
98
82
49
123
98
74
123
98
74
123
98
74
115
90
57
131
106
74
123
98
74
123
98
74
106
82
65
106
82
65
90
74
49
90
74
49
106
82
65
90
74
49
106
82
65
115
90
57
123
98
74
115
90
57
123
98
74
131
106
74
123
98
74
115
90
57
106
82
65
82
65
49
90
74
49
106
82
65
106
82
65
98
82
49
98
82
49
106
82
65
115
90
57
115
90
57
90
98
65
115
90
57
90
74
49
82
65
49
98
82
49
115
90
57
106
82
65
106
82
65
115
90
57
115
74
41
106
82
65
106
82
65
123
98
74
123
98
74
148
123
98
131
106
82
123
98
74
106
82
65
106
82
65
123
98
74
131
106
74
131
106
74
131
106
82
123
98
74
106
82
65
123
98
74
131
106
74
131
106
74
123
98
74
123
98
74
106
82
65
106
82
65
106
82
65
148
123
98
123
98
74
123
98
74
115
90
57
148
123
98
123
98
74
123
98
74
106
82
65
106
82
65
90
74
49
90
74
49
106
82
65
90
74
49
106
82
65
106
82
65
123
98
74
98
82
49
123
98
74
131
106
74
123
98
74
123
98
74
98
82
49
82
65
49
106
82
65
106
82
65
90
74
49
106
82
65
106
82
65
106
82
65
115
90
57
115
90
57
115
90
57
115
90
57
90
74
49
90
74
49
98
82
49
115
90
57
106
82
65
115
90
57
115
90
57
115
74
41
106
82
65
123
98
74
123
98
74
123
98
74
123
98
74
131
106
82
123
98
74
106
82
65
106
82
65
123
98
74
131
106
74
131
106
74
131
106
74
123
98
74
123
98
74
123
98
74
131
106
82
148
123
98
123
98
74
123
98
74
106
82
65
106
82
65
123
98
74
148
123
98
131
106
74
123
98
74
123
98
74
123
98
74
123
98
74
123
98
74
123
98
74
106
82
65
90
74
49
90
74
49
106
82
65
90
74
49
106
82
65
106
82
65
123
98
74
106
82
65
123
98
74
131
106
74
123
98
74
131
106
74
106
82
65
82
65
49
98
82
49
106
82
65
98
82
49
106
82
65
98
82
49
115
90
57
115
90
57
106
82
65
123
98
74
115
90
57
90
74
49
90
74
49
98
82
49
123
98
74
106
82
65
106
82
65
123
98
74
98
82
49
106
82
65
123
98
74
123
98
74
106
82
65
123
98
74
131
106
82
123
98
74
106
82
65
106
82
65
123
98
74
131
106
74
131
106
74
148
123
98
131
106
82
123
98
74
123
98
74
131
106
82
131
106
74
131
106
74
131
106
74
106
82
65
98
82
49
131
106
74
131
106
74
123
98
74
131
106
74
115
90
57
131
106
74
115
90
57
123
98
74
123
98
74
106
82
65
90
74
49
90
74
49
106
82
65
90
74
49
106
82
65
106
82
65
123
98
74
115
90
57
123
98
74
131
106
74
123
98
74
131
106
74
106
82
65
82
65
49
98
82
49
106
82
65
106
82
65
98
82
49
106
82
65
106
82
65
115
90
57
115
90
57
115
90
57
115
90
57
106
82
65
90
74
49
98
82
49
106
82
65
106
82
65
115
90
57
115
90
57
90
98
65
123
98
74
123
98
74
123
98
74
106
82
65
123
98
74
131
106
82
123
98
74
106
82
65
106
82
65
123
98
74
131
106
74
131
106
74
148
123
98
131
106
82
123
98
74
123
98
74
131
106
82
148
123
98
123
98
74
131
106
74
106
82
65
115
90
57
115
90
57
131
106
74
123
98
74
131
106
74
131
106
74
123
98
74
115
90
57
123
98
74
123
98
74
106
82
65
90
74
49
90
74
49
106
82
65
106
82
65
123
98
74
98
82
49
123
98
74
115
90
57
123
98
74
131
106
74
131
106
82
123
98
74
115
90
57
90
74
49
98
82
49
123
98
74
106
82
65
98
82
49
98
82
49
106
82
65
123
98
74
115
90
57
131
106
74
115
90
57
106
82
65
90
74
49
98
82
49
123
98
74
106
82
65
106
82
65
123
98
74
90
98
65
106
82
65
123
98
74
123
98
74
123
98
74
123
98
74
131
106
74
123
98
74
106
82
65
106
82
65
131
106
74
123
98
74
131
106
82
148
123
98
131
106
82
123
98
74
123
98
74
131
106
82
148
123
98
115
90
57
148
123
98
106
82
65
106
82
65
123
98
74
148
123
98
123
98
74
131
106
74
131
106
74
123
98
74
115
90
57
123
98
74
123
98
74
106
82
65
90
74
49
90
74
49
106
82
65
106
82
65
123
98
74
98
82
49
123
98
74
115
90
57
123
98
74
123
98
74
131
106
82
123
98
74
115
90
57
90
74
49
106
82
65
106
82
65
123
98
74
106
82
65
106
82
65
115
90
57
123
98
74
115
90
57
123
98
74
123
98
74
106
82
65
90
74
49
98
82
49
106
82
65
106
82
65
115
90
57
115
90
57
115
74
41
106
82
65
123
98
74
123
98
74
123
98
74
123
98
74
131
106
74
123
98
74
106
82
65
106
82
65
123
98
74
123
98
74
131
106
82
148
123
98
131
106
82
123
98
74
123
98
74
131
106
82
148
123
98
115
90
57
148
123
98
106
82
65
123
98
74
123
98
74
148
123
98
123
98
74
148
123
98
148
123
98
123
98
74
131
106
74
123
98
74
123
98
74
106
82
65
90
74
49
90
74
49
106
82
65
98
82
49
123
98
74
98
82
49
123
98
74
115
90
57
123
98
74
131
106
82
123
98
74
123
98
74
115
90
57
90
74
49
106
82
65
106
82
65
123
98
74
106
82
65
106
82
65
123
98
74
123
98
74
115
90
57
115
90
57
115
90
57
106
82
65
106
82
65
98
82
49
115
90
57
106
82
65
115
90
57
115
90
57
98
82
49
106
82
65
123
98
74
123
98
74
106
82
65
131
106
74
123
98
74
123
98
74
106
82
65
106
82
65
123
98
74
131
106
74
131
106
82
148
123
98
131
106
82
123
98
74
123
98
74
131
106
82
148
123
98
123
98
74
131
106
74
106
82
65
123
98
74
123
98
74
148
123
98
131
106
74
131
106
74
148
123
98
115
90
57
123
98
74
123
98
74
131
106
74
106
82
65
90
74
49
90
74
49
106
82
65
98
82
49
115
90
57
106
82
65
123
98
74
123
98
74
123
98
74
131
106
82
123
98
74
131
106
74
115
90
57
90
74
49
106
82
65
106
82
65
123
98
74
123
98
74
106
82
65
115
90
57
123
98
74
115
90
57
115
90
57
115
90
57
115
90
57
106
82
65
98
82
49
115
90
57
123
98
74
123
98
74
115
90
57
115
90
57
106
82
65
123
98
74
123
98
74
106
82
65
123
98
74
131
106
74
131
106
74
106
82
65
106
82
65
131
106
82
123
98
74
131
106
82
148
123
98
131
106
82
123
98
74
123
98
74
131
106
82
148
123
98
123
98
74
123
98
74
106
82
65
123
98
74
131
106
74
148
123
98
123
98
74
131
106
74
148
123
98
115
90
57
115
90
57
115
90
57
131
106
74
106
82
65
90
74
49
90
74
49
106
82
65
98
82
49
123
98
74
115
90
57
115
90
57
123
98
74
123
98
74
131
106
82
123
98
74
123
98
74
123
98
74
90
74
49
106
82
65
123
98
74
106
82
65
106
82
65
98
82
49
131
106
74
115
90
57
115
90
57
115
90
57
115
90
57
123
98
74
106
82
65
98
82
49
106
82
65
115
90
57
115
90
57
115
90
57
123
98
74
106
82
65
115
90
57
106
82
65
106
82
65
131
106
74
131
106
74
131
106
74
106
82
65
106
82
65
131
106
82
123
98
74
131
106
82
148
123
98
131
106
82
123
98
74
115
90
57
131
106
82
148
123
98
123
98
74
131
106
74
106
82
65
123
98
74
131
106
74
131
106
74
131
106
74
131
106
74
148
123
98
123
98
74
123
98
74
115
90
57
131
106
74
106
82
65
90
74
49
90
74
49
106
82
65
98
82
49
123
98
74
98
82
49
123
98
74
123
98
74
123
98
74
131
106
82
123
98
74
131
106
74
115
90
57
90
74
49
106
82
65
106
82
65
106
82
65
106
82
65
98
82
49
131
106
74
115
90
57
106
82
65
123
98
74
123
98
74
115
90
57
106
82
65
98
82
49
106
82
65
106
82
65
106
82
65
106
82
65
106
82
65
106
82
65
115
90
57
106
82
65
106
82
65
131
106
74
123
98
74
131
106
74
106
82
65
106
82
65
131
106
82
123
98
74
131
106
82
148
123
98
131
106
82
123
98
74
106
82
65
123
98
74
131
106
74
123
98
74
148
123
98
106
82
65
123
98
74
131
106
74
131
106
74
123
98
74
123
98
74
148
123
98
123
98
74
123
98
74
115
90
57
123
98
74
106
82
65
90
74
49
90
74
49
106
82
65
90
74
49
123
98
74
98
82
49
123
98
74
123
98
74
123
98
74
131
106
82
123
98
74
123
98
74
123
98
74
90
74
49
106
82
65
123
98
74
106
82
65
106
82
65
106
82
65
123
98
74
115
90
57
115
90
57
131
106
74
123
98
74
115
90
57
106
82
65
98
82
49
106
82
65
115
90
57
115
90
57
98
82
49
98
82
49
106
82
65
123
98
74
123
98
74
106
82
65
131
106
74
115
90
57
123
98
74
106
82
65
106
82
65
131
106
82
123
98
74
131
106
82
148
123
98
131
106
82
123
98
74
106
82
65
123
98
74
148
123
98
115
90
57
131
106
74
123
98
74
123
98
74
131
106
74
131
106
74
115
90
57
131
106
74
148
123
98
115
90
57
115
90
57
115
90
57
115
90
57
106
82
65
90
74
49
90
74
49
106
82
65
90
74
49
123
98
74
98
82
49
115
90
57
123
98
74
123
98
74
131
106
82
131
106
82
115
90
57
123
98
74
106
82
65
106
82
65
123
98
74
106
82
65
98
82
49
106
82
65
115
90
57
90
98
65
131
106
74
115
90
57
115
90
57
123
98
74
106
82
65
98
82
49
106
82
65
115
90
57
115
90
57
106
82
65
90
74
49
106
82
65
106
82
65
123
98
74
106
82
65
131
106
74
115
90
57
123
98
74
123
98
74
106
82
65
131
106
82
123
98
74
131
106
82
148
123
98
131
106
82
123
98
74
106
82
65
123
98
74
148
123
98
115
90
57
131
106
82
123
98
74
123
98
74
131
106
74
131
106
74
123
98
74
131
106
82
148
123
98
115
90
57
106
82
65
115
90
57
106
82
65
106
82
65
82
65
49
90
74
49
90
74
49
90
74
49
115
90
57
98
82
49
115
90
57
131
106
74
123
98
74
131
106
82
123
98
74
123
98
74
115
90
57
106
82
65
106
82
65
123
98
74
106
82
65
106
82
65
106
82
65
106
82
65
106
82
65
131
106
74
123
98
74
123
98
74
115
90
57
106
82
65
98
82
49
106
82
65
123
98
74
123
98
74
106
82
65
98
82
49
106
82
65
106
82
65
106
82
65
106
82
65
131
106
74
115
90
57
115
90
57
123
98
74
106
82
65
131
106
74
131
106
74
123
98
74
131
106
74
131
106
82
123
98
74
106
82
65
123
98
74
131
106
82
106
82
65
131
106
82
115
90
57
123
98
74
131
106
74
131
106
74
131
106
82
131
106
82
131
106
74
123
98
74
106
82
65
123
98
74
106
82
65
106
82
65
90
74
49
90
74
49
90
74
49
90
74
49
123
98
74
98
82
49
115
90
57
123
98
74
123
98
74
131
106
82
123
98
74
123
98
74
115
90
57
98
82
49
123
98
74
106
82
65
106
82
65
123
98
74
106
82
65
115
90
57
115
90
57
115
90
57
123
98
74
131
106
74
106
82
65
106
82
65
98
82
49
106
82
65
115
90
57
115
90
57
98
82
49
115
74
41
106
82
65
123
98
74
123
98
74
123
98
74
123
98
74
131
106
74
123
98
74
106
82
65
106
82
65
123
98
74
123
98
74
131
106
82
148
123
98
131
106
82
123
98
74
123
98
74
131
106
82
148
123
98
115
90
57
148
123
98
106
82
65
123
98
74
123
98
74
148
123
98
123
98
74
148
123
98
148
123
98
123
98
74
131
106
74
123
98
74
123
98
74
106
82
65
90
74
49
90
74
49
106
82
65
98
82
49
123
98
74
98
82
49
123
98
74
115
90
57
123
98
74
131
106
82
123
98
74
123
98
74
115
90
57
90
74
49
106
82
65
106
82
65
123
98
74
106
82
65
106
82
65
123
98
74
123
98
74
115
90
57
115
90
57
115
90
57
106
82
65
106
82
65
98
82
49
115
90
57
106
82
65
115
90
57
115
90
57
98
82
49
106
82
65
123
98
74
123
98
74
106
82
65
131
106
74
123
98
74
123
98
74
106
82
65
106
82
65
123
98
74
131
106
74
131
106
82
148
123
98
131
106
82
123
98
74
123
98
74
131
106
82
148
123
98
123
98
74
131
106
74
106
82
65
123
98
74
123
98
74
148
123
98
131
106
74
131
106
74
148
123
98
115
90
57
123
98
74
123
98
74
131
106
74
106
82
65
90
74
49
90
74
49
106
82
65
98
82
49
115
90
57
106
82
65
123
98
74
123
98
74
123
98
74
131
106
82
123
98
74
131
106
74
115
90
57
90
74
49
106
82
65
106
82
65
123
98
74
123
98
74
106
82
65
115
90
57
123
98
74
115
90
57
115
90
57
115
90
57
115
90
57
106
82
65
98
82
49
115
90
57
123
98
74
123
98
74
115
90
57
115
90
57
106
82
65
123
98
74
123
98
74
106
82
65
123
98
74
131
106
74
131
106
74
106
82
65
106
82
65
131
106
82
123
98
74
131
106
82
148
123
98
131
106
82
123
98
74
123
98
74
131
106
82
148
123
98
123
98
74
123
98
74
106
82
65
123
98
74
131
106
74
148
123
98
123
98
74
131
106
74
148
123
98
115
90
57
115
90
57
115
90
57
131
106
74
106
82
65
90
74
49
90
74
49
106
82
65
98
82
49
123
98
74
115
90
57
115
90
57
123
98
74
123
98
74
131
106
82
123
98
74
123
98
74
123
98
74
90
74
49
106
82
65
123
98
74
106
82
65
106
82
65
98
82
49
131
106
74
115
90
57
115
90
57
115
90
57
115
90
57
123
98
74
106
82
65
98
82
49
106
82
65
115
90
57
115
90
57
115
90
57
123
98
74
106
82
65
115
90
57
106
82
65
106
82
65
131
106
74
131
106
74
131
106
74
106
82
65
106
82
65
131
106
82
123
98
74
131
106
82
148
123
98
131
106
82
123
98
74
115
90
57
131
106
82
148
123
98
123
98
74
131
106
74
106
82
65
123
98
74
131
106
74
131
106
74
131
106
74
131
106
74
148
123
98
123
98
74
123
98
74
115
90
57
131
106
74
106
82
65
90
74
49
90
74
49
106
82
65
98
82
49
123
98
74
98
82
49
123
98
74
123
98
74
123
98
74
131
106
82
123
98
74
131
106
74
115
90
57
90
74
49
106
82
65
106
82
65
106
82
65
106
82
65
98
82
49
131
106
74
115
90
57
106
82
65
123
98
74
123
98
74
115
90
57
106
82
65
98
82
49
106
82
65
106
82
65
106
82
65
106
82
65
106
82
65
106
82
65
115
90
57
106
82
65
106
82
65
131
106
74
123
98
74
131
106
74
106
82
65
106
82
65
131
106
82
123
98
74
131
106
82
148
123
98
131
106
82
123
98
74
106
82
65
123
98
74
131
106
74
123
98
74
148
123
98
106
82
65
123
98
74
131
106
74
131
106
74
123
98
74
123
98
74
148
123
98
123
98
74
123
98
74
115
90
57
123
98
74
106
82
65
90
74
49
90
74
49
106
82
65
90
74
49
123
98
74
98
82
49
123
98
74
123
98
74
123
98
74
131
106
82
123
98
74
123
98
74
123
98
74
90
74
49
106
82
65
123
98
74
106
82
65
106
82
65
106
82
65
123
98
74
115
90
57
115
90
57
131
106
74
123
98
74
115
90
57
106
82
65
98
82
49
106
82
65
115
90
57
115
90
57
98
82
49
98
82
49
106
82
65
123
98
74
123
98
74
106
82
65
131
106
74
115
90
57
123
98
74
106
82
65
106
82
65
131
106
82
123
98
74
131
106
82
148
123
98
131
106
82
123
98
74
106
82
65
123
98
74
148
123
98
115
90
57
131
106
74
123
98
74
123
98
74
131
106
74
131
106
74
115
90
57
131
106
74
148
123
98
115
90
57
115
90
57
115
90
57
115
90
57
106
82
65
90
74
49
90
74
49
106
82
65
90
74
49
123
98
74
98
82
49
115
90
57
123
98
74
123
98
74
131
106
82
131
106
82
115
90
57
123
98
74
106
82
65
106
82
65
123
98
74
106
82
65
98
82
49
106
82
65
115
90
57
90
98
65
131
106
74
115
90
57
115
90
57
123
98
74
106
82
65
98
82
49
106
82
65
115
90
57
115
90
57
106
82
65
90
74
49
106
82
65
106
82
65
123
98
74
106
82
65
131
106
74
115
90
57
123
98
74
123
98
74
106
82
65
131
106
82
123
98
74
131
106
82
148
123
98
131
106
82
123
98
74
106
82
65
123
98
74
148
123
98
115
90
57
131
106
82
123
98
74
123
98
74
131
106
74
131
106
74
123
98
74
131
106
82
148
123
98
115
90
57
106
82
65
115
90
57
106
82
65
106
82
65
82
65
49
90
74
49
90
74
49
90
74
49
115
90
57
98
82
49
115
90
57
131
106
74
123
98
74
131
106
82
123
98
74
123
98
74
115
90
57
106
82
65
106
82
65
123
98
74
106
82
65
106
82
65
106
82
65
106
82
65
106
82
65
131
106
74
123
98
74
123
98
74
115
90
57
106
82
65
98
82
49
106
82
65
123
98
74
123
98
74
106
82
65
98
82
49
106
82
65
106
82
65
106
82
65
106
82
65
131
106
74
115
90
57
115
90
57
123
98
74
106
82
65
131
106
74
131
106
74
123
98
74
131
106
74
131
106
82
123
98
74
106
82
65
123
98
74
131
106
82
106
82
65
131
106
82
115
90
57
123
98
74
131
106
74
131
106
74
131
106
82
131
106
82
131
106
74
123
98
74
106
82
65
123
98
74
106
82
65
106
82
65
90
74
49
90
74
49
90
74
49
90
74
49
123
98
74
98
82
49
115
90
57
123
98
74
123
98
74
131
106
82
123
98
74
123
98
74
115
90
57
98
82
49
123
98
74
106
82
65
106
82
65
123
98
74
106
82
65
115
90
57
115
90
57
115
90
57
123
98
74
131
106
74
106
82
65
106
82
65
98
82
49
106
82
65
115
90
57
115
90
57
98
82
49
115
74
41
106
82
65
106
82
65
123
98
74
106
82
65
131
106
74
131
106
74
115
90
57
123
98
74
106
82
65
123
98
74
131
106
74
131
106
74
131
106
74
131
106
82
123
98
74
98
82
49
123
98
74
123
98
74
106
82
65
131
106
74
131
106
74
123
98
74
148
123
98
131
106
74
131
106
82
131
106
82
131
106
74
131
106
74
106
82
65
115
90
57
106
82
65
106
82
65
90
74
49
90
74
49
106
82
65
90
74
49
123
98
74
98
82
49
115
90
57
131
106
74
123
98
74
123
98
74
123
98
74
123
98
74
115
90
57
106
82
65
106
82
65
106
82
65
98
82
49
106
82
65
98
82
49
98
82
49
115
90
57
115
90
57
115
90
57
115
90
57
115
90
57
106
82
65
98
82
49
106
82
65
115
90
57
115
90
57
98
82
49
115
74
41
106
82
65
106
82
65
123
98
74
106
82
65
131
106
74
131
106
74
123
98
74
123
98
74
106
82
65
115
90
57
131
106
74
123
98
74
123
98
74
131
106
82
123
98
74
98
82
49
106
82
65
123
98
74
98
82
49
131
106
82
123
98
74
123
98
74
131
106
74
131
106
74
131
106
82
131
106
82
131
106
74
131
106
74
98
82
49
123
98
74
115
90
57
106
82
65
82
65
49
90
74
49
106
82
65
82
65
49
123
98
74
98
82
49
106
82
65
131
106
74
123
98
74
123
98
74
123
98
74
123
98
74
115
90
57
98
82
49
106
82
65
123
98
74
98
82
49
106
82
65
106
82
65
98
82
49
115
90
57
115
90
57
115
90
57
106
82
65
106
82
65
106
82
65
98
82
49
123
98
74
115
90
57
115
90
57
98
82
49
115
74
41
106
82
65
106
82
65
115
90
57
106
82
65
131
106
74
131
106
74
123
98
74
123
98
74
106
82
65
123
98
74
131
106
74
115
90
57
123
98
74
115
90
57
106
82
65
106
82
65
106
82
65
115
90
57
98
82
49
131
106
82
98
82
49
123
98
74
123
98
74
131
106
74
123
98
74
131
106
82
131
106
74
123
98
74
98
82
49
115
90
57
123
98
74
106
82
65
82
65
49
90
74
49
106
82
65
82
65
49
123
98
74
98
82
49
106
82
65
123
98
74
123
98
74
123
98
74
115
90
57
123
98
74
106
82
65
98
82
49
106
82
65
106
82
65
98
82
49
106
82
65
106
82
65
98
82
49
115
90
57
115
90
57
115
90
57
115
90
57
106
82
65
106
82
65
98
82
49
106
82
65
115
90
57
115
90
57
98
82
49
98
82
49
106
82
65
106
82
65
106
82
65
106
82
65
123
98
74
131
106
74
115
90
57
123
98
74
106
82
65
123
98
74
123
98
74
115
90
57
131
106
74
106
82
65
106
82
65
106
82
65
106
82
65
123
98
74
106
82
65
123
98
74
106
82
65
123
98
74
123
98
74
131
106
74
123
98
74
131
106
82
148
123
98
115
90
57
106
82
65
106
82
65
123
98
74
106
82
65
82
65
49
90
74
49
106
82
65
82
65
49
123
98
74
98
82
49
98
82
49
123
98
74
123
98
74
123
98
74
123
98
74
115
90
57
106
82
65
98
82
49
106
82
65
106
82
65
106
82
65
106
82
65
98
82
49
98
82
49
115
90
57
106
82
65
115
90
57
115
90
57
98
82
49
90
74
49
98
82
49
106
82
65
115
90
57
115
90
57
82
65
49
82
57
24
106
82
65
106
82
65
98
82
49
123
98
74
115
90
57
131
106
74
115
90
57
123
98
74
106
82
65
106
82
65
123
98
74
115
90
57
123
98
74
106
82
65
106
82
65
106
82
65
98
82
49
115
90
57
98
82
49
115
90
57
90
74
49
123
98
74
115
90
57
115
90
57
115
90
57
123
98
74
131
106
74
115
90
57
98
82
49
106
82
65
123
98
74
106
82
65
82
65
49
90
74
49
106
82
65
82
65
49
115
90
57
98
82
49
98
82
49
115
90
57
123
98
74
123
98
74
98
82
49
115
90
57
106
82
65
106
82
65
98
82
49
106
82
65
106
82
65
115
90
57
106
82
65
106
82
65
106
82
65
106
82
65
106
82
65
115
90
57
106
82
65
90
74
49
115
90
57
98
82
49
115
90
57
106
82
65
82
65
49
82
65
49
98
82
49
90
74
49
98
82
49
115
90
57
115
90
57
115
90
57
115
90
57
115
90
57
106
82
65
106
82
65
148
123
98
106
82
65
98
82
49
106
82
65
106
82
65
98
82
49
98
82
49
115
90
57
90
74
49
123
98
74
82
65
49
131
106
74
115
90
57
115
90
57
106
82
65
106
82
65
131
106
74
115
90
57
98
82
49
106
82
65
115
90
57
106
82
65
90
74
49
90
74
49
90
74
49
82
65
49
106
82
65
106
82
65
106
82
65
123
98
74
115
90
57
115
90
57
115
90
57
106
82
65
106
82
65
98
82
49
106
82
65
106
82
65
98
82
49
106
82
65
115
90
57
106
82
65
106
82
65
106
82
65
98
82
49
106
82
65
115
90
57
82
65
49
106
82
65
106
82
65
106
82
65
106
82
65
98
82
49
82
65
49
98
82
49
90
74
49
90
74
49
115
90
57
115
90
57
106
82
65
123
98
74
115
90
57
106
82
65
115
90
57
123
98
74
106
82
65
98
82
49
98
82
49
106
82
65
98
82
49
98
82
49
98
82
49
90
74
49
115
90
57
90
74
49
115
90
57
115
90
57
115
90
57
115
90
57
98
82
49
131
106
74
115
90
57
106
82
65
106
82
65
115
90
57
98
82
49
90
74
49
90
74
49
90
74
49
82
65
49
106
82
65
106
82
65
98
82
49
115
90
57
123
98
74
123
98
74
115
90
57
82
65
49
106
82
65
98
82
49
106
82
65
106
82
65
90
74
49
106
82
65
106
82
65
106
82
65
106
82
65
106
82
65
90
74
49
106
82
65
106
82
65
90
74
49
90
74
49
106
82
65
82
65
49
98
82
49
98
82
49
82
65
49
82
57
24
90
74
49
90
74
49
115
90
57
115
90
57
106
82
65
123
98
74
115
90
57
90
74
49
106
82
65
115
90
57
115
90
57
98
82
49
98
82
49
98
82
49
90
74
49
98
82
49
106
82
65
90
74
49
106
82
65
90
74
49
90
98
65
98
82
49
115
90
57
106
82
65
98
82
49
131
106
74
123
98
74
106
82
65
106
82
65
115
90
57
98
82
49
82
65
49
90
74
49
90
74
49
82
65
49
106
82
65
106
82
65
98
82
49
115
90
57
115
90
57
115
90
57
98
82
49
98
82
49
98
82
49
90
74
49
90
74
49
98
82
49
90
74
49
98
82
49
98
82
49
90
74
49
106
82
65
98
82
49
98
82
49
98
82
49
98
82
49
90
74
49
82
65
49
98
82
49
82
65
49
98
82
49
90
74
49
74
49
24
82
65
49
82
65
49
90
74
49
106
82
65
115
90
57
106
82
65
115
90
57
106
82
65
82
65
49
106
82
65
106
82
65
115
90
57
98
82
49
98
82
49
106
82
65
82
65
49
106
82
65
82
65
49
90
74
49
90
74
49
90
74
49
106
82
65
98
82
49
115
90
57
106
82
65
98
82
49
115
90
57
115
90
57
106
82
65
98
82
49
115
90
57
90
74
49
82
65
49
90
74
49
90
74
49
82
65
49
106
82
65
98
82
49
82
65
49
106
82
65
106
82
65
106
82
65
106
82
65
106
82
65
106
82
65
82
65
49
106
82
65
90
74
49
90
74
49
98
82
49
90
74
49
82
65
49
106
82
65
90
74
49
98
82
49
98
82
49
90
74
49
82
65
49
82
65
49
90
74
49
82
65
49
82
65
49
82
65
49
74
49
24
82
57
24
82
65
49
90
74
49
98
82
49
106
82
65
115
90
57
106
82
65
106
82
65
90
74
49
106
82
65
106
82
65
106
82
65
106
82
65
90
74
49
90
74
49
90
74
49
106
82
65
90
74
49
90
74
49
82
65
49
82
65
49
106
82
65
106
82
65
106
82
65
106
82
65
98
82
49
106
82
65
115
90
57
98
82
49
98
82
49
106
82
65
82
65
49
82
65
49
82
65
49
90
74
49
82
65
49
106
82
65
106
82
65
82
65
49
106
82
65
106
82
65
106
82
65
98
82
49
90
74
49
90
74
49
82
65
49
90
74
49
82
65
49
90
74
49
98
82
49
90
74
49
90
74
49
90
74
49
90
74
49
98
82
49
98
82
49
90
74
49
90
74
49
82
65
49
90
74
49
82
65
49
82
65
49
82
65
49
74
49
24
74
49
24
82
65
49
90
74
49
98
82
49
106
82
65
106
82
65
90
74
49
98
82
49
82
65
49
90
74
49
106
82
65
98
82
49
106
82
65
82
65
49
82
65
49
90
74
49
106
82
65
106
82
65
90
74
49
82
65
49
82
65
49
106
82
65
106
82
65
106
82
65
98
82
49
106
82
65
106
82
65
115
90
57
98
82
49
98
82
49
98
82
49
90
74
49
82
65
49
82
65
49
90
74
49
82
65
49
106
82
65
106
82
65
82
65
49
90
74
49
106
82
65
106
82
65
106
82
65
90
74
49
90
74
49
82
65
49
90
74
49
82
65
49
82
65
49
82
65
49
82
65
49
90
74
49
90
74
49
90
74
49
82
65
49
82
65
49
82
65
49
90
74
49
82
65
49
82
65
49
82
65
49
82
65
49
82
65
49
74
49
24
74
49
24
82
65
49
90
74
49
90
74
49
106
82
65
90
74
49
82
65
49
90
74
49
82
65
49
82
65
49
90
74
49
98
82
49
90
74
49
82
65
49
82
65
49
90
74
49
106
82
65
90
74
49
90
74
49
82
65
49
82
65
49
90
74
49
98
82
49
98
82
49
82
65
49
106
82
65
106
82
65
115
90
57
98
82
49
98
82
49
90
74
49
82
65
49
82
65
49
82
65
49
90
74
49
82
65
49
106
82
65
90
74
49
82
65
49
90
74
49
106
82
65
106
82
65
106
82
65
90
74
49
82
65
49
82
65
49
82
65
49
82
65
49
82
57
24
82
65
49
90
74
49
82
65
49
90
74
49
90
74
49
82
65
49
82
65
49
90
74
49
82
65
49
82
65
49
82
65
49
74
49
24
82
65
49
74
49
24
74
49
24
49
41
16
82
57
24
82
65
49
90
74
49
106
82
65
82
65
49
82
65
49
90
74
49
82
65
49
82
65
49
90
74
49
90
74
49
82
65
49
82
65
49
82
65
49
106
82
65
90
74
49
90
74
49
82
65
49
82
65
49
82
65
49
90
74
49
98
82
49
98
82
49
82
65
49
98
82
49
98
82
49
123
98
74
106
82
65
106
82
65
90
74
49
82
65
49
82
65
49
82
65
49
82
65
49
90
74
49
106
82
65
90
74
49
82
65
49
90
74
49
106
82
65
106
82
65
106
82
65
90
74
49
82
65
49
82
65
49
82
65
49
82
65
49
82
65
49
82
65
49
82
65
49
82
65
49
90
74
49
90
74
49
82
65
49
82
65
49
82
65
49
82
65
49
82
65
49
82
65
49
74
49
24
82
65
49
74
49
24
74
49
24
74
49
24
82
57
24
82
65
49
82
65
49
90
74
49
82
65
49
82
65
49
82
65
49
82
65
49
82
65
49
82
65
49
82
65
49
82
65
49
82
65
49
82
65
49
106
82
65
82
65
49
82
65
49
82
65
49
82
65
49
82
65
49
82
65
49
98
82
49
106
82
65
82
65
49
90
74
49
106
82
65
115
90
57
106
82
65
90
74
49
90
74
49
82
65
49
82
65
49
82
65
49
82
65
49
90
74
49
90
74
49
90
74
49
82
65
49
82
65
49
90
74
49
106
82
65
90
74
49
90
74
49
82
65
49
82
65
49
74
49
24
82
65
49
74
49
24
82
65
49
82
65
49
82
65
49
82
65
49
90
74
49
82
65
49
82
65
49
82
65
49
82
65
49
82
65
49
74
49
24
74
49
24
82
65
49
57
41
16
74
49
24
74
49
24
82
57
24
82
57
24
74
49
24
82
65
49
82
65
49
82
65
49
82
65
49
82
65
49
82
65
49
82
65
49
82
65
49
82
65
49
82
65
49
82
65
49
82
65
49
82
65
49
82
65
49
82
65
49
82
65
49
82
65
49
82
65
49
82
65
49
90
74
49
90
74
49
98
82
49
98
82
49
106
82
65
82
65
49
90
74
49
90
74
49
82
65
49
82
65
49
82
65
49
82
65
49
82
65
49
90
74
49
90
74
49
82
65
49
82
65
49
90
74
49
90
74
49
90
74
49
90
74
49
82
65
49
82
65
49
82
65
49
82
65
49
74
49
24
82
65
49
82
65
49
82
65
49
82
65
49
82
65
49
82
65
49
82
65
49
82
65
49
82
65
49
82
65
49
82
65
49
74
49
24
82
65
49
49
41
16
74
49
24
74
49
24
74
49
24
82
57
24
82
65
49
82
65
49
82
65
49
82
65
49
82
65
49
82
65
49
82
65
49
82
65
49
82
65
49
82
65
49
82
65
49
82
65
49
82
65
49
82
65
49
82
65
49
82
65
49
82
65
49
82
65
49
82
65
49
82
65
49
82
65
49
90
74
49
90
74
49
90
74
49
90
74
49
90
74
49
90
74
49
82
65
49
82
65
49
82
65
49
82
65
49
82
65
49
82
65
49
82
65
49
82
65
49
82
65
49
82
65
49
82
65
49
82
65
49
82
65
49
82
65
49
82
65
49
82
65
49
74
49
24
74
49
24
74
49
24
74
49
24
82
65
49
82
65
49
82
65
49
82
65
49
82
65
49
82
65
49
82
65
49
82
65
49
82
65
49
74
49
24
82
65
49
74
49
24
57
41
16
