P3
# Created by GIMP version 2.10.12 PNM plug-in
64 64
255
0
0
82
0
0
57
0
0
57
0
0
65
0
0
41
0
0
65
0
0
106
0
0
82
0
0
41
0
0
57
0
0
65
0
0
32
0
0
65
0
0
41
0
0
57
0
0
82
0
0
65
0
0
82
0
0
41
0
0
65
0
0
106
0
0
106
0
0
41
0
0
82
0
0
82
0
0
65
0
0
106
0
0
57
0
0
41
0
0
65
0
0
41
0
0
65
0
0
41
0
0
57
0
0
57
0
0
106
0
0
57
0
0
106
0
0
57
0
0
32
0
0
82
0
0
57
0
0
57
0
0
65
0
0
41
0
0
65
0
0
106
0
0
82
0
0
41
0
0
57
0
0
65
0
0
32
0
0
65
0
0
41
0
0
57
0
0
82
0
0
65
0
0
82
0
0
41
0
0
65
0
0
106
0
0
106
0
0
41
0
0
82
0
0
82
0
0
65
0
0
65
0
0
82
0
0
57
0
0
82
0
0
106
0
0
65
0
0
57
0
0
65
0
0
131
0
0
32
0
0
41
0
0
41
0
0
65
0
0
65
0
0
57
0
0
65
0
0
106
0
0
57
0
0
41
0
0
106
0
0
57
0
0
57
0
0
57
0
0
82
0
0
41
0
0
106
0
0
106
0
0
65
0
0
41
0
0
57
0
0
41
0
0
57
0
0
41
0
0
65
0
0
82
0
0
82
0
0
57
0
0
106
0
0
82
0
0
65
0
0
65
0
0
82
0
0
57
0
0
82
0
0
106
0
0
65
0
0
57
0
0
65
0
0
131
0
0
32
0
0
41
0
0
41
0
0
65
0
0
65
0
0
57
0
0
65
0
0
106
0
0
57
0
0
41
0
0
106
0
0
57
0
0
57
0
0
82
0
0
41
0
0
57
0
0
57
0
0
41
0
0
65
0
0
82
0
0
65
0
0
41
0
0
131
0
0
65
0
0
57
0
0
106
0
0
65
0
0
41
0
0
82
0
0
82
0
0
82
0
0
57
0
0
57
0
0
82
0
0
57
0
0
65
0
0
32
0
0
106
0
0
57
0
0
41
0
0
106
0
0
106
0
0
57
0
0
82
0
0
41
0
0
57
0
0
82
0
0
65
0
0
82
0
0
106
0
0
82
0
0
57
0
0
41
0
0
82
0
0
41
0
0
57
0
0
57
0
0
41
0
0
65
0
0
82
0
0
65
0
0
41
0
0
131
0
0
65
0
0
57
0
0
106
0
0
65
0
0
41
0
0
82
0
0
82
0
0
82
0
0
57
0
0
57
0
0
82
0
0
57
0
0
65
0
0
32
0
0
41
0
0
106
0
0
65
0
0
32
0
0
65
0
0
41
0
0
57
0
0
65
0
0
106
0
0
131
0
0
41
0
0
57
0
0
106
0
0
82
0
0
82
0
0
57
0
0
106
0
0
41
0
0
41
0
0
82
0
0
82
0
0
106
0
0
106
0
0
41
0
0
65
0
0
65
0
0
57
0
0
65
0
0
106
0
0
65
0
0
106
0
0
65
0
0
41
0
0
82
0
0
57
0
0
82
0
0
65
0
0
82
0
0
65
0
0
82
0
0
41
0
0
106
0
0
65
0
0
32
0
0
65
0
0
41
0
0
57
0
0
65
0
0
106
0
0
131
0
0
41
0
0
57
0
0
106
0
0
82
0
0
82
0
0
57
0
0
106
0
0
41
0
0
41
0
0
82
0
0
82
0
0
106
0
0
106
0
0
41
0
0
65
0
0
82
0
0
57
0
0
65
0
0
65
0
0
65
0
0
82
0
0
41
0
0
106
0
0
106
0
0
32
0
0
106
0
0
82
0
0
106
0
0
32
0
0
106
0
0
106
0
0
41
0
0
57
0
0
57
0
0
106
0
0
82
0
0
57
0
0
106
0
0
57
0
0
82
0
0
41
0
0
41
0
0
106
0
0
57
0
0
57
0
0
106
0
0
41
0
0
82
0
0
32
0
0
57
0
0
65
0
0
57
0
0
106
0
0
82
0
0
65
0
0
82
0
0
57
0
0
65
0
0
65
0
0
65
0
0
82
0
0
41
0
0
106
0
0
106
0
0
32
0
0
106
0
0
82
0
0
106
0
0
32
0
0
106
0
0
106
0
0
41
0
0
57
0
0
57
0
0
106
0
0
82
0
0
57
0
0
106
0
0
82
0
0
57
0
0
57
0
0
82
0
0
41
0
0
57
0
0
82
0
0
57
0
0
106
0
0
57
0
0
41
0
0
57
0
0
32
0
0
82
0
0
106
0
0
106
0
0
41
0
0
106
0
0
131
0
0
65
0
0
82
0
0
82
0
0
82
0
0
82
0
0
57
0
0
65
0
0
57
0
0
65
0
0
82
0
0
57
0
0
41
0
0
131
0
0
65
0
0
65
0
0
41
0
0
65
0
0
57
0
0
57
0
0
82
0
0
41
0
0
82
0
0
57
0
0
57
0
0
82
0
0
41
0
0
57
0
0
82
0
0
57
0
0
106
0
0
57
0
0
41
0
0
57
0
0
32
0
0
82
0
0
106
0
0
106
0
0
41
0
0
106
0
0
131
0
0
65
0
0
82
0
0
82
0
0
82
0
0
82
0
0
82
0
0
131
0
0
65
0
0
41
0
0
82
0
0
106
0
0
82
0
0
106
0
0
57
0
0
57
0
0
65
0
0
57
0
0
32
0
0
65
0
0
106
0
0
82
0
0
41
0
0
106
0
0
156
0
0
57
0
0
57
0
0
82
0
0
57
0
0
82
0
0
57
0
0
41
0
0
57
0
0
106
0
0
57
0
0
65
0
0
32
0
0
106
0
0
106
0
0
57
0
0
82
0
0
57
0
0
41
0
0
65
0
0
65
0
0
65
0
0
82
0
0
131
0
0
65
0
0
41
0
0
82
0
0
106
0
0
82
0
0
106
0
0
57
0
0
57
0
0
65
0
0
57
0
0
32
0
0
65
0
0
106
0
0
82
0
0
41
0
0
106
0
0
156
0
0
57
0
0
57
0
0
82
0
0
57
0
0
82
0
0
41
0
0
106
0
0
106
0
0
57
0
0
106
0
0
65
0
0
41
0
0
57
0
0
106
0
0
65
0
0
82
0
0
65
0
0
65
0
0
57
0
0
106
0
0
82
0
0
82
0
0
41
0
0
41
0
0
65
0
0
57
0
0
82
0
0
41
0
0
57
0
0
82
0
0
82
0
0
41
0
0
41
0
0
41
0
0
106
0
0
57
0
0
41
0
0
106
0
0
41
0
0
57
0
0
106
0
0
106
0
0
82
0
0
57
0
0
82
0
0
41
0
0
106
0
0
106
0
0
57
0
0
106
0
0
65
0
0
41
0
0
57
0
0
106
0
0
65
0
0
82
0
0
65
0
0
65
0
0
57
0
0
106
0
0
82
0
0
82
0
0
41
0
0
41
0
0
65
0
0
57
0
0
82
0
0
41
0
0
57
0
0
82
0
0
106
0
0
82
0
0
57
0
0
57
0
0
65
0
0
82
0
0
106
0
0
106
0
0
65
0
0
57
0
0
57
0
0
65
0
0
82
0
0
57
0
0
65
0
0
106
0
0
106
0
0
41
0
0
57
0
0
106
0
0
82
0
0
57
0
0
57
0
0
106
0
0
106
0
0
82
0
0
57
0
0
106
0
0
57
0
0
65
0
0
65
0
0
82
0
0
32
0
0
65
0
0
57
0
0
106
0
0
57
0
0
82
0
0
106
0
0
82
0
0
106
0
0
82
0
0
57
0
0
57
0
0
65
0
0
82
0
0
106
0
0
106
0
0
65
0
0
57
0
0
57
0
0
65
0
0
82
0
0
57
0
0
65
0
0
106
0
0
106
0
0
41
0
0
57
0
0
106
0
0
82
0
0
57
0
0
57
0
0
156
0
0
65
0
0
106
0
0
57
0
0
82
0
0
65
0
0
106
0
0
82
0
0
106
0
0
106
0
0
41
0
0
65
0
0
41
0
0
65
0
0
106
0
0
41
0
0
106
0
0
106
0
0
106
0
0
57
0
0
82
0
0
65
0
0
82
0
0
65
0
0
57
0
0
41
0
0
106
0
0
41
0
0
65
0
0
82
0
0
82
0
0
82
0
0
57
0
0
41
0
0
57
0
0
57
0
0
41
0
0
65
0
0
57
0
0
57
0
0
156
0
0
65
0
0
106
0
0
57
0
0
82
0
0
65
0
0
106
0
0
82
0
0
106
0
0
106
0
0
41
0
0
65
0
0
41
0
0
65
0
0
106
0
0
41
0
0
106
0
0
106
0
0
106
0
0
57
0
0
82
0
0
65
0
0
82
0
0
65
0
0
57
0
0
106
0
0
82
0
0
57
0
0
106
0
0
82
0
0
82
0
0
106
0
0
41
0
0
106
0
0
65
0
0
57
0
0
106
0
0
82
0
0
82
0
0
82
0
0
57
0
0
106
0
0
41
0
0
106
0
0
57
0
0
82
0
0
82
0
0
65
0
0
57
0
0
32
0
0
106
0
0
65
0
0
41
0
0
131
0
0
106
0
0
65
0
0
106
0
0
41
0
0
82
0
0
32
0
0
82
0
0
82
0
0
82
0
0
57
0
0
57
0
0
106
0
0
82
0
0
57
0
0
106
0
0
82
0
0
82
0
0
106
0
0
41
0
0
106
0
0
65
0
0
57
0
0
106
0
0
82
0
0
82
0
0
82
0
0
57
0
0
106
0
0
41
0
0
106
0
0
57
0
0
82
0
0
82
0
0
65
0
0
65
0
0
65
0
0
131
0
0
57
0
0
82
0
0
41
0
0
82
0
0
65
0
0
57
0
0
41
0
0
106
0
0
57
0
0
65
0
0
106
0
0
106
0
0
57
0
0
106
0
0
106
0
0
82
0
0
106
0
0
57
0
0
57
0
0
106
0
0
41
0
0
82
0
0
57
0
0
82
0
0
65
0
0
57
0
0
106
0
0
57
0
0
41
0
0
106
0
0
41
0
0
106
0
0
32
0
0
57
0
0
106
0
0
65
0
0
106
0
0
65
0
0
65
0
0
131
0
0
57
0
0
82
0
0
41
0
0
82
0
0
65
0
0
57
0
0
41
0
0
106
0
0
57
0
0
65
0
0
106
0
0
106
0
0
57
0
0
106
0
0
106
0
0
82
0
0
106
0
0
57
0
0
57
0
0
106
0
0
41
0
0
65
0
0
57
0
0
65
0
0
65
0
0
57
0
0
57
0
0
106
0
0
57
0
0
65
0
0
65
0
0
82
0
0
57
0
0
82
0
0
65
0
0
82
0
0
106
0
0
57
0
0
106
0
0
41
0
0
82
0
0
57
0
0
57
0
0
106
0
0
65
0
0
106
0
0
41
0
0
41
0
0
106
0
0
65
0
0
57
0
0
57
0
0
57
0
0
82
0
0
57
0
0
106
0
0
106
0
0
57
0
0
106
0
0
41
0
0
57
0
0
65
0
0
57
0
0
65
0
0
65
0
0
57
0
0
57
0
0
106
0
0
57
0
0
65
0
0
65
0
0
82
0
0
57
0
0
82
0
0
65
0
0
82
0
0
106
0
0
57
0
0
106
0
0
41
0
0
82
0
0
57
0
0
57
0
0
106
0
0
65
0
0
82
0
0
57
0
0
57
0
0
57
0
0
41
0
0
65
0
0
106
0
0
41
0
0
82
0
0
65
0
0
106
0
0
41
0
0
131
0
0
65
0
0
82
0
0
65
0
0
57
0
0
82
0
0
82
0
0
57
0
0
57
0
0
65
0
0
82
0
0
82
0
0
41
0
0
57
0
0
106
0
0
106
0
0
57
0
0
57
0
0
57
0
0
41
0
0
57
0
0
57
0
0
57
0
0
57
0
0
82
0
0
65
0
0
57
0
0
41
0
0
82
0
0
57
0
0
57
0
0
57
0
0
41
0
0
65
0
0
106
0
0
41
0
0
82
0
0
65
0
0
106
0
0
41
0
0
131
0
0
65
0
0
82
0
0
65
0
0
57
0
0
82
0
0
82
0
0
57
0
0
57
0
0
65
0
0
82
0
0
82
0
0
57
0
0
57
0
0
65
0
0
82
0
0
65
0
0
106
0
0
106
0
0
65
0
0
57
0
0
57
0
0
106
0
0
57
0
0
82
0
0
82
0
0
106
0
0
82
0
0
32
0
0
106
0
0
82
0
0
106
0
0
106
0
0
32
0
0
57
0
0
106
0
0
57
0
0
106
0
0
57
0
0
82
0
0
82
0
0
41
0
0
65
0
0
131
0
0
57
0
0
57
0
0
41
0
0
106
0
0
57
0
0
106
0
0
57
0
0
57
0
0
57
0
0
57
0
0
65
0
0
82
0
0
65
0
0
106
0
0
106
0
0
65
0
0
57
0
0
57
0
0
106
0
0
57
0
0
82
0
0
82
0
0
106
0
0
82
0
0
32
0
0
106
0
0
82
0
0
106
0
0
106
0
0
32
0
0
57
0
0
106
0
0
41
0
0
82
0
0
82
0
0
82
0
0
65
0
0
57
0
0
106
0
0
57
0
0
57
0
0
106
0
0
65
0
0
82
0
0
106
0
0
57
0
0
106
0
0
106
0
0
82
0
0
106
0
0
57
0
0
106
0
0
65
0
0
65
0
0
41
0
0
82
0
0
82
0
0
82
0
0
106
0
0
106
0
0
82
0
0
65
0
0
41
0
0
131
0
0
57
0
0
65
0
0
57
0
0
106
0
0
106
0
0
82
0
0
82
0
0
57
0
0
41
0
0
82
0
0
82
0
0
82
0
0
65
0
0
57
0
0
106
0
0
57
0
0
57
0
0
106
0
0
65
0
0
82
0
0
106
0
0
57
0
0
106
0
0
106
0
0
82
0
0
106
0
0
57
0
0
106
0
0
65
0
0
65
0
0
41
0
0
82
0
0
65
0
0
82
0
0
57
0
0
82
0
0
65
0
0
106
0
0
65
0
0
65
0
0
57
0
0
57
0
0
106
0
0
57
0
0
106
0
0
57
0
0
41
0
0
131
0
0
57
0
0
57
0
0
82
0
0
57
0
0
65
0
0
106
0
0
65
0
0
82
0
0
82
0
0
65
0
0
57
0
0
82
0
0
57
0
0
65
0
0
41
0
0
41
0
0
106
0
0
82
0
0
32
0
0
156
0
0
156
0
0
41
0
0
57
0
0
57
0
0
65
0
0
82
0
0
57
0
0
82
0
0
65
0
0
106
0
0
65
0
0
65
0
0
57
0
0
57
0
0
106
0
0
57
0
0
106
0
0
57
0
0
41
0
0
131
0
0
57
0
0
57
0
0
82
0
0
57
0
0
65
0
0
106
0
0
65
0
0
82
0
0
82
0
0
131
0
0
65
0
0
41
0
0
106
0
0
106
0
0
82
0
0
106
0
0
106
0
0
57
0
0
65
0
0
65
0
0
65
0
0
106
0
0
57
0
0
106
0
0
65
0
0
41
0
0
106
0
0
65
0
0
57
0
0
41
0
0
82
0
0
57
0
0
106
0
0
57
0
0
65
0
0
82
0
0
57
0
0
57
0
0
156
0
0
106
0
0
57
0
0
82
0
0
106
0
0
106
0
0
41
0
0
41
0
0
82
0
0
57
0
0
82
0
0
106
0
0
57
0
0
106
0
0
82
0
0
57
0
0
57
0
0
106
0
0
131
0
0
106
0
0
82
0
0
65
0
0
57
0
0
82
0
0
131
0
0
131
0
0
65
0
0
82
0
0
82
0
0
65
0
0
57
0
0
41
0
0
82
0
0
57
0
0
41
0
0
82
0
0
106
0
0
106
0
0
57
0
0
106
0
0
65
0
0
82
0
0
106
0
0
57
0
0
41
0
0
57
0
0
106
0
0
131
0
0
65
0
0
65
0
0
106
0
0
32
0
0
82
0
0
106
0
0
106
0
0
32
0
0
106
0
0
57
0
0
82
0
0
82
0
0
57
0
0
82
0
0
57
0
0
106
0
0
82
0
0
57
0
0
82
0
0
106
0
0
106
0
0
65
0
0
106
0
0
65
0
0
82
0
0
65
0
0
106
0
0
82
0
0
57
0
0
82
0
0
106
0
0
65
0
0
106
0
0
106
0
0
41
0
0
106
0
0
106
0
0
82
0
0
41
0
0
65
0
0
106
0
0
106
0
0
41
0
0
65
0
0
65
0
0
106
0
0
106
0
0
32
0
0
106
0
0
57
0
0
106
0
0
106
0
0
57
0
0
106
0
0
106
0
0
57
0
0
82
0
0
65
0
0
106
0
0
82
0
0
57
0
0
32
0
0
65
0
0
106
0
0
57
0
0
57
0
0
57
0
0
65
0
0
41
0
0
65
0
0
82
0
0
57
0
0
57
0
0
57
0
0
131
0
0
65
0
0
65
0
0
82
0
0
106
0
0
57
0
0
82
0
0
82
0
0
106
0
0
82
0
0
106
0
0
65
0
0
65
0
0
82
0
0
57
0
0
82
0
0
131
0
0
106
0
0
82
0
0
57
0
0
41
0
0
65
0
0
82
0
0
82
0
0
57
0
0
65
0
0
65
0
0
82
0
0
57
0
0
106
0
0
41
0
0
131
0
0
57
0
0
57
0
0
57
0
0
65
0
0
82
0
0
57
0
0
57
0
0
57
0
0
65
0
0
106
0
0
82
0
0
82
0
0
106
0
0
82
0
0
57
0
0
82
0
0
65
0
0
106
0
0
41
0
0
57
0
0
82
0
0
82
0
0
82
0
0
106
0
0
32
0
0
82
0
0
82
0
0
106
0
0
106
0
0
57
0
0
82
0
0
106
0
0
82
0
0
82
0
0
41
0
0
65
0
0
65
0
0
57
0
0
106
0
0
57
0
0
106
0
0
82
0
0
57
0
0
57
0
0
57
0
0
65
0
0
32
0
0
131
0
0
106
0
0
82
0
0
131
0
0
65
0
0
57
0
0
65
0
0
156
0
0
41
0
0
156
0
0
41
0
0
82
0
0
65
0
0
106
0
0
57
0
0
82
0
0
57
0
0
106
0
0
57
0
0
65
0
0
41
0
0
82
0
0
65
0
0
106
0
0
57
0
0
82
0
0
82
0
0
57
0
0
106
0
0
82
0
0
106
0
0
82
0
0
57
0
0
106
0
0
106
0
0
57
0
0
106
0
0
106
0
0
106
0
0
82
0
0
82
0
0
106
0
0
57
0
0
57
0
0
106
0
0
82
0
0
82
0
0
106
0
0
156
0
0
65
0
0
57
0
0
65
0
0
57
0
0
57
0
0
57
0
0
65
0
0
57
0
0
82
0
0
57
0
0
57
0
0
82
0
0
156
0
0
57
0
0
65
0
0
131
0
0
41
0
0
106
0
0
106
0
0
82
0
0
131
0
0
65
0
0
82
0
0
82
0
0
82
0
0
106
0
0
57
0
0
106
0
0
57
0
0
82
0
0
82
0
0
65
0
0
131
0
0
57
0
0
82
0
0
65
0
0
65
0
0
82
0
0
65
0
0
65
0
0
106
0
0
82
0
0
106
0
0
82
0
0
65
0
0
82
0
0
65
0
0
82
0
0
106
0
0
65
0
0
57
0
0
82
0
0
57
0
0
131
0
0
82
0
0
65
0
0
82
0
0
82
0
0
65
0
0
65
0
0
82
0
0
65
0
0
106
0
0
106
0
0
65
0
0
82
0
0
57
0
0
57
0
0
57
0
0
82
0
0
106
0
0
41
0
0
106
0
0
57
0
0
65
0
0
106
0
0
65
0
0
65
0
0
131
0
0
32
0
0
65
0
0
57
0
0
106
0
0
82
0
0
106
0
0
57
0
0
131
0
0
41
0
0
65
0
0
156
0
0
57
0
0
57
0
0
82
0
0
82
0
0
57
0
0
65
0
0
82
0
0
82
0
0
106
0
0
65
0
0
57
0
0
82
0
0
106
0
0
57
0
0
82
0
0
106
0
0
106
0
0
57
0
0
57
0
0
65
0
0
82
0
0
131
0
0
65
0
0
41
0
0
82
0
0
65
0
0
41
0
0
65
0
0
32
0
0
65
0
0
106
0
0
57
0
0
106
0
0
82
0
0
65
0
0
82
0
0
57
0
0
82
0
0
82
0
0
57
0
0
106
0
0
82
0
0
106
0
0
82
0
0
57
0
0
57
0
0
82
0
0
57
0
0
41
0
0
65
0
0
82
0
0
82
0
0
65
0
0
57
0
0
82
0
0
57
0
0
156
0
0
41
0
0
65
0
0
65
0
0
82
0
0
41
0
0
65
0
0
82
0
0
106
0
0
106
0
0
65
0
0
65
0
0
106
0
0
82
0
0
106
0
0
82
0
0
65
0
0
57
0
0
82
0
0
82
0
0
65
0
0
65
0
0
106
0
0
65
0
0
65
0
0
82
0
0
57
0
0
82
0
0
57
0
0
106
0
0
65
0
0
57
0
0
82
0
0
82
0
0
57
0
0
57
0
0
57
0
0
65
0
0
82
0
0
57
0
0
82
0
0
65
0
0
82
0
0
106
0
0
82
0
0
65
0
0
106
0
0
82
0
0
82
0
0
106
0
0
82
0
0
57
0
0
82
0
0
65
0
0
131
0
0
57
0
0
106
0
0
65
0
0
156
0
0
65
0
0
131
0
0
65
0
0
82
0
0
82
0
0
106
0
0
82
0
0
57
0
0
57
0
0
57
0
0
57
0
0
82
0
0
65
0
0
57
0
0
106
0
0
65
0
0
82
0
0
106
0
0
106
0
0
106
0
0
41
0
0
156
0
0
65
0
0
57
0
0
41
0
0
57
0
0
57
0
0
106
0
0
82
0
0
82
0
0
41
0
0
65
0
0
65
0
0
57
0
0
106
0
0
82
0
0
82
0
0
65
0
0
82
0
0
57
0
0
106
0
0
82
0
0
82
0
0
65
0
0
57
0
0
82
0
0
82
0
0
57
0
0
106
0
0
82
0
0
106
0
0
106
0
0
57
0
0
106
0
0
106
0
0
57
0
0
82
0
0
65
0
0
106
0
0
82
0
0
57
0
0
32
0
0
82
0
0
82
0
0
57
0
0
106
0
0
65
0
0
82
0
0
65
0
0
106
0
0
106
0
0
82
0
0
65
0
0
57
0
0
65
0
0
57
0
0
65
0
0
57
0
0
106
0
0
82
0
0
65
0
0
57
0
0
82
0
0
82
0
0
106
0
0
82
0
0
65
0
0
106
0
0
41
0
0
65
0
0
131
0
0
156
0
0
65
0
0
57
0
0
65
0
0
57
0
0
57
0
0
57
0
0
65
0
0
82
0
0
82
0
0
41
0
0
57
0
0
82
0
0
82
0
0
82
0
0
57
0
0
65
0
0
82
0
0
82
0
0
82
0
0
82
0
0
106
0
0
106
0
0
41
0
0
82
0
0
106
0
0
106
0
0
57
0
0
106
0
0
65
0
0
82
0
0
106
0
0
57
0
0
41
0
0
57
0
0
57
0
0
106
0
0
82
0
0
82
0
0
106
0
0
65
0
0
65
0
0
106
0
0
65
0
0
65
0
0
82
0
0
65
0
0
82
0
0
57
0
0
41
0
0
65
0
0
82
0
0
65
0
0
65
0
0
106
0
0
106
0
0
32
0
0
106
0
0
32
0
0
106
0
0
106
0
0
41
0
0
82
0
0
106
0
0
106
0
0
65
0
0
82
0
0
57
0
0
57
0
0
57
0
0
82
0
0
106
0
0
57
0
0
106
0
0
57
0
0
57
0
0
65
0
0
57
0
0
57
0
0
57
0
0
57
0
0
65
0
0
106
0
0
82
0
0
57
0
0
57
0
0
82
0
0
82
0
0
131
0
0
65
0
0
41
0
0
106
0
0
106
0
0
82
0
0
106
0
0
106
0
0
57
0
0
65
0
0
65
0
0
41
0
0
106
0
0
57
0
0
106
0
0
57
0
0
65
0
0
65
0
0
65
0
0
106
0
0
65
0
0
82
0
0
57
0
0
82
0
0
65
0
0
41
0
0
156
0
0
41
0
0
57
0
0
82
0
0
57
0
0
82
0
0
57
0
0
65
0
0
82
0
0
57
0
0
106
0
0
82
0
0
65
0
0
65
0
0
82
0
0
82
0
0
57
0
0
106
0
0
82
0
0
106
0
0
82
0
0
57
0
0
131
0
0
57
0
0
57
0
0
106
0
0
65
0
0
106
0
0
57
0
0
41
0
0
82
0
0
57
0
0
82
0
0
57
0
0
41
0
0
156
0
0
41
0
0
65
0
0
82
0
0
57
0
0
82
0
0
65
0
0
106
0
0
65
0
0
65
0
0
57
0
0
57
0
0
106
0
0
57
0
0
82
0
0
57
0
0
106
0
0
82
0
0
57
0
0
106
0
0
106
0
0
32
0
0
106
0
0
82
0
0
57
0
0
82
0
0
131
0
0
57
0
0
57
0
0
65
0
0
57
0
0
82
0
0
106
0
0
65
0
0
82
0
0
82
0
0
57
0
0
65
0
0
65
0
0
65
0
0
82
0
0
65
0
0
57
0
0
65
0
0
106
0
0
82
0
0
82
0
0
106
0
0
82
0
0
57
0
0
82
0
0
106
0
0
41
0
0
65
0
0
82
0
0
106
0
0
41
0
0
106
0
0
41
0
0
106
0
0
106
0
0
57
0
0
65
0
0
57
0
0
82
0
0
41
0
0
41
0
0
82
0
0
82
0
0
82
0
0
65
0
0
57
0
0
106
0
0
57
0
0
57
0
0
106
0
0
65
0
0
82
0
0
106
0
0
82
0
0
57
0
0
57
0
0
57
0
0
106
0
0
82
0
0
57
0
0
131
0
0
82
0
0
106
0
0
106
0
0
106
0
0
57
0
0
106
0
0
106
0
0
106
0
0
65
0
0
65
0
0
82
0
0
82
0
0
57
0
0
106
0
0
65
0
0
41
0
0
82
0
0
65
0
0
106
0
0
82
0
0
106
0
0
106
0
0
57
0
0
106
0
0
106
0
0
57
0
0
82
0
0
65
0
0
65
0
0
57
0
0
57
0
0
57
0
0
106
0
0
82
0
0
65
0
0
57
0
0
65
0
0
65
0
0
82
0
0
82
0
0
106
0
0
57
0
0
65
0
0
57
0
0
57
0
0
65
0
0
82
0
0
65
0
0
106
0
0
106
0
0
65
0
0
57
0
0
57
0
0
106
0
0
57
0
0
106
0
0
57
0
0
41
0
0
57
0
0
82
0
0
106
0
0
82
0
0
82
0
0
65
0
0
106
0
0
82
0
0
41
0
0
106
0
0
106
0
0
106
0
0
106
0
0
57
0
0
82
0
0
82
0
0
57
0
0
82
0
0
82
0
0
82
0
0
82
0
0
65
0
0
82
0
0
57
0
0
57
0
0
65
0
0
106
0
0
65
0
0
65
0
0
106
0
0
82
0
0
82
0
0
82
0
0
65
0
0
106
0
0
82
0
0
41
0
0
57
0
0
82
0
0
131
0
0
41
0
0
82
0
0
106
0
0
106
0
0
41
0
0
57
0
0
106
0
0
57
0
0
65
0
0
82
0
0
57
0
0
57
0
0
57
0
0
41
0
0
65
0
0
106
0
0
41
0
0
82
0
0
65
0
0
106
0
0
41
0
0
156
0
0
41
0
0
106
0
0
65
0
0
106
0
0
82
0
0
106
0
0
57
0
0
65
0
0
106
0
0
82
0
0
82
0
0
106
0
0
57
0
0
106
0
0
106
0
0
65
0
0
57
0
0
82
0
0
65
0
0
82
0
0
57
0
0
57
0
0
57
0
0
65
0
0
65
0
0
65
0
0
106
0
0
65
0
0
82
0
0
106
0
0
57
0
0
65
0
0
57
0
0
65
0
0
57
0
0
57
0
0
106
0
0
82
0
0
41
0
0
82
0
0
82
0
0
82
0
0
41
0
0
106
0
0
82
0
0
106
0
0
65
0
0
57
0
0
106
0
0
82
0
0
82
0
0
65
0
0
57
0
0
65
0
0
65
0
0
57
0
0
57
0
0
106
0
0
57
0
0
65
0
0
65
0
0
82
0
0
57
0
0
131
0
0
57
0
0
32
0
0
65
0
0
65
0
0
65
0
0
57
0
0
82
0
0
106
0
0
57
0
0
131
0
0
65
0
0
82
0
0
82
0
0
57
0
0
82
0
0
65
0
0
57
0
0
106
0
0
65
0
0
106
0
0
57
0
0
41
0
0
57
0
0
106
0
0
106
0
0
32
0
0
106
0
0
82
0
0
82
0
0
82
0
0
82
0
0
82
0
0
65
0
0
106
0
0
41
0
0
106
0
0
65
0
0
106
0
0
41
0
0
57
0
0
57
0
0
106
0
0
82
0
0
82
0
0
57
0
0
65
0
0
57
0
0
65
0
0
57
0
0
57
0
0
131
0
0
65
0
0
65
0
0
131
0
0
57
0
0
82
0
0
41
0
0
82
0
0
65
0
0
57
0
0
41
0
0
106
0
0
57
0
0
57
0
0
82
0
0
82
0
0
57
0
0
106
0
0
57
0
0
82
0
0
82
0
0
65
0
0
65
0
0
57
0
0
82
0
0
57
0
0
82
0
0
106
0
0
65
0
0
65
0
0
65
0
0
65
0
0
82
0
0
65
0
0
57
0
0
82
0
0
106
0
0
106
0
0
82
0
0
57
0
0
131
0
0
82
0
0
82
0
0
82
0
0
106
0
0
106
0
0
65
0
0
57
0
0
57
0
0
82
0
0
82
0
0
82
0
0
57
0
0
65
0
0
65
0
0
57
0
0
65
0
0
106
0
0
57
0
0
82
0
0
82
0
0
57
0
0
106
0
0
65
0
0
106
0
0
57
0
0
106
0
0
82
0
0
57
0
0
106
0
0
82
0
0
82
0
0
106
0
0
41
0
0
106
0
0
65
0
0
57
0
0
41
0
0
82
0
0
65
0
0
41
0
0
106
0
0
65
0
0
57
0
0
41
0
0
57
0
0
57
0
0
57
0
0
41
0
0
65
0
0
131
0
0
82
0
0
41
0
0
82
0
0
106
0
0
57
0
0
57
0
0
82
0
0
57
0
0
65
0
0
106
0
0
106
0
0
82
0
0
82
0
0
65
0
0
106
0
0
82
0
0
106
0
0
82
0
0
65
0
0
57
0
0
106
0
0
65
0
0
82
0
0
106
0
0
57
0
0
82
0
0
82
0
0
82
0
0
57
0
0
65
0
0
106
0
0
82
0
0
65
0
0
41
0
0
106
0
0
82
0
0
82
0
0
41
0
0
156
0
0
65
0
0
106
0
0
57
0
0
82
0
0
65
0
0
106
0
0
82
0
0
106
0
0
106
0
0
41
0
0
65
0
0
82
0
0
57
0
0
57
0
0
82
0
0
106
0
0
65
0
0
106
0
0
41
0
0
65
0
0
82
0
0
41
0
0
82
0
0
65
0
0
106
0
0
65
0
0
41
0
0
106
0
0
106
0
0
82
0
0
82
0
0
82
0
0
106
0
0
65
0
0
41
0
0
82
0
0
106
0
0
57
0
0
65
0
0
106
0
0
106
0
0
82
0
0
106
0
0
82
0
0
65
0
0
82
0
0
65
0
0
82
0
0
57
0
0
57
0
0
65
0
0
82
0
0
82
0
0
57
0
0
57
0
0
57
0
0
131
0
0
57
0
0
106
0
0
57
0
0
65
0
0
82
0
0
82
0
0
82
0
0
106
0
0
82
0
0
57
0
0
57
0
0
65
0
0
82
0
0
106
0
0
106
0
0
65
0
0
57
0
0
57
0
0
82
0
0
106
0
0
57
0
0
82
0
0
82
0
0
106
0
0
106
0
0
41
0
0
82
0
0
65
0
0
65
0
0
57
0
0
57
0
0
106
0
0
57
0
0
106
0
0
65
0
0
41
0
0
106
0
0
106
0
0
57
0
0
65
0
0
57
0
0
106
0
0
65
0
0
57
0
0
82
0
0
106
0
0
57
0
0
82
0
0
106
0
0
106
0
0
57
0
0
57
0
0
65
0
0
82
0
0
131
0
0
106
0
0
65
0
0
57
0
0
65
0
0
57
0
0
65
0
0
57
0
0
41
0
0
82
0
0
131
0
0
65
0
0
41
0
0
82
0
0
106
0
0
106
0
0
41
0
0
106
0
0
106
0
0
57
0
0
106
0
0
65
0
0
41
0
0
57
0
0
106
0
0
65
0
0
82
0
0
65
0
0
57
0
0
41
0
0
65
0
0
41
0
0
57
0
0
57
0
0
106
0
0
82
0
0
65
0
0
57
0
0
41
0
0
82
0
0
106
0
0
65
0
0
106
0
0
41
0
0
106
0
0
82
0
0
57
0
0
82
0
0
57
0
0
41
0
0
65
0
0
65
0
0
57
0
0
82
0
0
82
0
0
65
0
0
65
0
0
106
0
0
65
0
0
65
0
0
82
0
0
57
0
0
82
0
0
57
0
0
106
0
0
57
0
0
41
0
0
57
0
0
82
0
0
65
0
0
65
0
0
106
0
0
41
0
0
106
0
0
131
0
0
82
0
0
57
0
0
65
0
0
65
0
0
82
0
0
82
0
0
131
0
0
65
0
0
41
0
0
82
0
0
106
0
0
82
0
0
106
0
0
57
0
0
57
0
0
65
0
0
57
0
0
57
0
0
41
0
0
131
0
0
57
0
0
106
0
0
65
0
0
65
0
0
82
0
0
65
0
0
65
0
0
82
0
0
65
0
0
82
0
0
82
0
0
106
0
0
57
0
0
41
0
0
41
0
0
57
0
0
65
0
0
41
0
0
106
0
0
41
0
0
106
0
0
65
0
0
57
0
0
41
0
0
57
0
0
57
0
0
106
0
0
82
0
0
82
0
0
41
0
0
65
0
0
65
0
0
57
0
0
106
0
0
82
0
0
65
0
0
82
0
0
57
0
0
65
0
0
82
0
0
65
0
0
57
0
0
65
0
0
106
0
0
82
0
0
57
0
0
106
0
0
57
0
0
57
0
0
82
0
0
57
0
0
57
0
0
82
0
0
41
0
0
57
0
0
82
0
0
57
0
0
106
0
0
57
0
0
41
0
0
57
0
0
57
0
0
57
0
0
131
0
0
57
0
0
82
0
0
41
0
0
82
0
0
65
0
0
106
0
0
57
0
0
82
0
0
65
0
0
65
0
0
41
0
0
57
0
0
41
0
0
57
0
0
82
0
0
82
0
0
57
0
0
57
0
0
82
0
0
32
0
0
106
0
0
65
0
0
106
0
0
41
0
0
65
0
0
82
0
0
156
0
0
65
0
0
57
0
0
65
0
0
57
0
0
57
0
0
57
0
0
65
0
0
41
0
0
65
0
0
131
0
0
57
0
0
65
0
0
131
0
0
82
0
0
57
0
0
57
0
0
106
0
0
57
0
0
82
0
0
82
0
0
57
0
0
32
0
0
65
0
0
82
0
0
57
0
0
65
0
0
65
0
0
65
0
0
82
0
0
41
0
0
106
0
0
106
0
0
32
0
0
106
0
0
57
0
0
57
0
0
57
0
0
65
0
0
41
0
0
65
0
0
82
0
0
57
0
0
57
0
0
57
0
0
131
0
0
65
0
0
82
0
0
82
0
0
82
0
0
82
0
0
82
0
0
41
0
0
57
0
0
131
0
0
32
0
0
41
0
0
82
0
0
106
0
0
106
0
0
106
0
0
41
0
0
82
0
0
65
0
0
106
0
0
65
0
0
82
0
0
57
0
0
57
0
0
57
0
0
82
0
0
106
0
0
82
0
0
57
0
0
57
0
0
41
0
0
65
0
0
57
0
0
65
0
0
65
0
0
65
0
0
57
0
0
65
0
0
106
0
0
41
0
0
57
0
0
57
0
0
41
0
0
106
0
0
65
0
0
32
0
0
65
0
0
41
0
0
57
0
0
65
0
0
106
0
0
131
0
0
41
0
0
57
0
0
65
0
0
65
0
0
106
0
0
32
0
0
82
0
0
106
0
0
106
0
0
32
0
0
106
0
0
57
0
0
82
0
0
82
0
0
82
0
0
65
0
0
106
0
0
57
0
0
65
0
0
106
0
0
41
0
0
106
0
0
57
0
0
41
0
0
82
0
0
106
0
0
57
0
0
106
0
0
82
0
0
65
0
0
57
0
0
82
0
0
82
0
0
57
0
0
106
0
0
82
0
0
106
0
0
82
0
0
57
0
0
57
0
0
106
0
0
82
0
0
57
0
0
82
0
0
41
0
0
106
0
0
57
0
0
65
0
0
65
0
0
57
0
0
82
0
0
41
0
0
32
0
0
65
0
0
82
0
0
41
0
0
57
0
0
57
0
0
41
0
0
65
0
0
82
0
0
65
0
0
41
0
0
131
0
0
65
0
0
57
0
0
57
0
0
106
0
0
65
0
0
41
0
0
106
0
0
65
0
0
57
0
0
41
0
0
82
0
0
57
0
0
106
0
0
57
0
0
106
0
0
57
0
0
57
0
0
65
0
0
41
0
0
41
0
0
57
0
0
106
0
0
57
0
0
57
0
0
156
0
0
106
0
0
65
0
0
65
0
0
82
0
0
65
0
0
65
0
0
65
0
0
106
0
0
82
0
0
82
0
0
106
0
0
82
0
0
57
0
0
82
0
0
82
0
0
57
0
0
82
0
0
82
0
0
41
0
0
41
0
0
82
0
0
82
0
0
82
0
0
65
0
0
106
0
0
106
0
0
57
0
0
41
0
0
82
0
0
82
0
0
65
0
0
65
0
0
82
0
0
57
0
0
82
0
0
106
0
0
65
0
0
57
0
0
65
0
0
131
0
0
32
0
0
41
0
0
131
0
0
57
0
0
57
0
0
82
0
0
57
0
0
65
0
0
106
0
0
65
0
0
82
0
0
82
0
0
65
0
0
57
0
0
82
0
0
57
0
0
65
0
0
41
0
0
41
0
0
106
0
0
82
0
0
32
0
0
156
0
0
156
0
0
41
0
0
41
0
0
82
0
0
65
0
0
106
0
0
57
0
0
106
0
0
106
0
0
57
0
0
106
0
0
106
0
0
57
0
0
82
0
0
65
0
0
82
0
0
41
0
0
41
0
0
57
0
0
65
0
0
41
0
0
82
0
0
82
0
0
57
0
0
41
0
0
65
0
0
82
0
0
57
0
0
82
0
0
57
0
0
82
0
0
57
0
0
57
0
0
65
0
0
41
0
0
65
0
0
106
0
0
82
0
0
41
0
0
57
0
0
65
0
0
32
0
0
106
0
0
106
0
0
82
0
0
106
0
0
57
0
0
106
0
0
65
0
0
65
0
0
41
0
0
82
0
0
82
0
0
82
0
0
106
0
0
106
0
0
82
0
0
65
0
0
41
0
0
131
0
0
57
0
0
65
0
0
57
0
0
106
0
0
106
0
0
82
0
0
65
0
0
82
0
0
57
0
0
57
0
0
57
0
0
41
0
0
82
0
0
106
0
0
106
0
0
57
0
0
106
0
0
65
0
0
82
0
0
106
0
0
57
0
0
41
0
0
57
0
0
57
0
0
106
0
0
57
0
0
32
0
0
82
0
0
106
0
0
57
0
0
65
0
0
106
0
0
82
0
0
57
0
0
65
0
0
32
0
0
41
0
0
82
0
0
41
0
0
82
0
0
41
0
0
106
0
0
57
0
0
65
0
0
57
0
0
65
0
0
106
0
0
82
0
0
32
0
0
106
0
0
82
0
0
106
0
0
106
0
0
32
0
0
57
0
0
106
0
0
57
0
0
106
0
0
57
0
0
82
0
0
82
0
0
41
0
0
65
0
0
131
0
0
57
0
0
57
0
0
41
0
0
106
0
0
57
0
0
106
0
0
106
0
0
106
0
0
32
0
0
106
0
0
57
0
0
82
0
0
131
0
0
65
0
0
41
0
0
106
0
0
106
0
0
82
0
0
106
0
0
131
0
0
57
0
0
41
0
0
65
0
0
65
0
0
106
0
0
57
0
0
57
0
0
131
0
0
82
0
0
57
0
0
41
0
0
106
0
0
41
0
0
57
0
0
57
0
0
41
0
0
82
0
0
82
0
0
57
0
0
82
0
0
41
0
0
106
0
0
106
0
0
57
0
0
41
0
0
106
0
0
82
0
0
65
0
0
57
0
0
82
0
0
82
0
0
57
0
0
57
0
0
65
0
0
82
0
0
82
0
0
41
0
0
57
0
0
106
0
0
106
0
0
57
0
0
57
0
0
57
0
0
41
0
0
57
0
0
57
0
0
57
0
0
57
0
0
82
0
0
65
0
0
65
0
0
57
0
0
41
0
0
82
0
0
57
0
0
65
0
0
82
0
0
57
0
0
82
0
0
65
0
0
106
0
0
65
0
0
65
0
0
65
0
0
106
0
0
32
0
0
57
0
0
57
0
0
106
0
0
65
0
0
41
0
0
156
0
0
65
0
0
57
0
0
57
0
0
106
0
0
57
0
0
82
0
0
82
0
0
57
0
0
82
0
0
106
0
0
57
0
0
57
0
0
57
0
0
57
0
0
106
0
0
41
0
0
106
0
0
57
0
0
156
0
0
156
0
0
41
0
0
57
0
0
57
0
0
65
0
0
82
0
0
57
0
0
82
0
0
65
0
0
106
0
0
65
0
0
65
0
0
57
0
0
57
0
0
106
0
0
57
0
0
106
0
0
57
0
0
41
0
0
131
0
0
57
0
0
57
0
0
82
0
0
57
0
0
65
0
0
106
0
0
65
0
0
82
0
0
41
0
0
82
0
0
82
0
0
82
0
0
65
0
0
57
0
0
106
0
0
57
0
0
57
0
0
41
0
0
82
0
0
57
0
0
65
0
0
82
0
0
32
0
0
57
0
0
57
0
0
106
0
0
57
0
0
82
0
0
106
0
0
41
0
0
65
0
0
106
0
0
82
0
0
65
0
0
106
0
0
57
0
0
82
0
0
57
0
0
82
0
0
41
0
0
106
0
0
106
0
0
41
0
0
106
0
0
106
0
0
82
0
0
82
0
0
57
0
0
41
0
0
82
0
0
82
0
0
82
0
0
65
0
0
57
0
0
106
0
0
57
0
0
57
0
0
106
0
0
65
0
0
82
0
0
106
0
0
57
0
0
106
0
0
106
0
0
82
0
0
106
0
0
57
0
0
106
0
0
65
0
0
65
0
0
41
0
0
82
0
0
57
0
0
57
0
0
65
0
0
82
0
0
65
0
0
106
0
0
106
0
0
65
0
0
82
0
0
41
0
0
106
0
0
82
0
0
41
0
0
82
0
0
57
0
0
65
0
0
41
0
0
106
0
0
41
0
0
82
0
0
65
0
0
82
0
0
41
0
0
41
0
0
106
0
0
82
0
0
65
0
0
41
0
0
82
0
0
106
0
0
65
0
0
41
0
0
57
0
0
65
0
0
65
0
0
106
0
0
57
0
0
106
0
0
57
0
0
57
0
0
57
0
0
57
0
0
65
0
0
82
0
0
65
0
0
106
0
0
106
0
0
65
0
0
57
0
0
57
0
0
106
0
0
57
0
0
82
0
0
82
0
0
106
0
0
82
0
0
32
0
0
106
0
0
82
0
0
106
0
0
106
0
0
32
0
0
57
0
0
106
0
0
82
0
0
57
0
0
57
0
0
57
0
0
41
0
0
65
0
0
106
0
0
41
0
0
82
0
0
65
0
0
106
0
0
41
0
0
131
0
0
65
0
0
82
0
0
65
0
0
57
0
0
82
0
0
82
0
0
57
0
0
57
0
0
65
0
0
82
0
0
82
0
0
41
0
0
57
0
0
106
0
0
106
0
0
57
0
0
57
0
0
57
0
0
41
0
0
57
0
0
57
0
0
57
0
0
57
0
0
82
0
0
65
0
0
57
0
0
41
0
0
82
0
0
57
0
0
57
0
0
57
0
0
41
0
0
65
0
0
106
0
0
41
0
0
82
0
0
65
0
0
106
0
0
41
0
0
131
0
0
65
0
0
82
0
0
65
0
0
57
0
0
82
0
0
82
0
0
57
0
0
57
0
0
65
0
0
82
0
0
82
0
0
65
0
0
57
0
0
65
0
0
65
0
0
57
0
0
57
0
0
106
0
0
57
0
0
65
0
0
65
0
0
82
0
0
57
0
0
82
0
0
65
0
0
82
0
0
106
0
0
57
0
0
106
0
0
41
0
0
82
0
0
57
0
0
57
0
0
106
0
0
65
0
0
106
0
0
41
0
0
41
0
0
106
0
0
65
0
0
57
0
0
57
0
0
57
0
0
82
0
0
57
0
0
106
0
0
106
0
0
57
0
0
106
0
0
41
0
0
57
0
0
65
0
0
57
0
0
65
0
0
65
0
0
57
0
0
57
0
0
106
0
0
57
0
0
65
0
0
65
0
0
82
0
0
57
0
0
82
0
0
65
0
0
82
0
0
106
0
0
57
0
0
106
0
0
41
0
0
82
0
0
57
0
0
57
0
0
106
0
0
65
0
0
65
0
0
65
0
0
131
0
0
57
0
0
82
0
0
41
0
0
82
0
0
65
0
0
57
0
0
41
0
0
106
0
0
57
0
0
65
0
0
106
0
0
106
0
0
57
0
0
106
0
0
106
0
0
82
0
0
106
0
0
57
0
0
57
0
0
106
0
0
41
0
0
82
0
0
57
0
0
82
0
0
65
0
0
57
0
0
106
0
0
57
0
0
41
0
0
106
0
0
41
0
0
106
0
0
32
0
0
57
0
0
106
0
0
65
0
0
106
0
0
65
0
0
65
0
0
131
0
0
57
0
0
82
0
0
41
0
0
82
0
0
65
0
0
57
0
0
41
0
0
106
0
0
57
0
0
65
0
0
106
0
0
106
0
0
57
0
0
106
0
0
106
0
0
82
0
0
106
0
0
57
0
0
57
0
0
106
0
0
41
0
0
57
0
0
106
0
0
82
0
0
57
0
0
106
0
0
82
0
0
82
0
0
106
0
0
41
0
0
106
0
0
65
0
0
57
0
0
106
0
0
82
0
0
82
0
0
82
0
0
57
0
0
106
0
0
41
0
0
106
0
0
57
0
0
82
0
0
82
0
0
65
0
0
57
0
0
32
0
0
106
0
0
65
0
0
41
0
0
131
0
0
106
0
0
65
0
0
106
0
0
41
0
0
82
0
0
32
0
0
82
0
0
82
0
0
82
0
0
57
0
0
57
0
0
106
0
0
82
0
0
57
0
0
106
0
0
82
0
0
82
0
0
106
0
0
41
0
0
106
0
0
65
0
0
57
0
0
106
0
0
82
0
0
82
0
0
82
0
0
57
0
0
106
0
0
41
0
0
106
0
0
57
0
0
82
0
0
82
0
0
65
0
0
156
0
0
65
0
0
106
0
0
57
0
0
82
0
0
65
0
0
106
0
0
82
0
0
106
0
0
106
0
0
41
0
0
65
0
0
41
0
0
65
0
0
106
0
0
41
0
0
106
0
0
106
0
0
106
0
0
57
0
0
82
0
0
65
0
0
82
0
0
65
0
0
57
0
0
41
0
0
106
0
0
41
0
0
65
0
0
82
0
0
82
0
0
82
0
0
57
0
0
41
0
0
57
0
0
57
0
0
41
0
0
65
0
0
57
0
0
57
0
0
156
0
0
65
0
0
106
0
0
57
0
0
82
0
0
65
0
0
106
0
0
82
0
0
106
0
0
106
0
0
41
0
0
65
0
0
41
0
0
65
0
0
106
0
0
41
0
0
106
0
0
106
0
0
106
0
0
57
0
0
82
0
0
65
0
0
82
0
0
65
0
0
82
0
0
106
0
0
82
0
0
57
0
0
57
0
0
65
0
0
82
0
0
106
0
0
106
0
0
65
0
0
57
0
0
57
0
0
65
0
0
82
0
0
57
0
0
65
0
0
106
0
0
106
0
0
41
0
0
57
0
0
106
0
0
82
0
0
57
0
0
57
0
0
106
0
0
106
0
0
82
0
0
57
0
0
106
0
0
57
0
0
65
0
0
65
0
0
82
0
0
32
0
0
65
0
0
57
0
0
106
0
0
57
0
0
82
0
0
106
0
0
82
0
0
106
0
0
82
0
0
57
0
0
57
0
0
65
0
0
82
0
0
106
0
0
106
0
0
65
0
0
57
0
0
57
0
0
65
0
0
82
0
0
57
0
0
65
0
0
106
0
0
106
0
0
41
0
0
57
0
0
106
0
0
82
0
0
57
0
0
57
0
0
41
0
0
106
0
0
106
0
0
57
0
0
106
0
0
65
0
0
41
0
0
57
0
0
106
0
0
65
0
0
82
0
0
65
0
0
65
0
0
57
0
0
106
0
0
82
0
0
82
0
0
41
0
0
41
0
0
65
0
0
57
0
0
82
0
0
41
0
0
57
0
0
82
0
0
82
0
0
41
0
0
41
0
0
41
0
0
106
0
0
57
0
0
41
0
0
106
0
0
41
0
0
57
0
0
106
0
0
106
0
0
82
0
0
57
0
0
82
0
0
41
0
0
106
0
0
106
0
0
57
0
0
106
0
0
65
0
0
41
0
0
57
0
0
106
0
0
65
0
0
82
0
0
65
0
0
65
0
0
57
0
0
106
0
0
82
0
0
82
0
0
41
0
0
41
0
0
65
0
0
57
0
0
82
0
0
41
0
0
57
0
0
82
0
0
131
0
0
65
0
0
41
0
0
82
0
0
106
0
0
82
0
0
106
0
0
57
0
0
57
0
0
65
0
0
57
0
0
32
0
0
65
0
0
106
0
0
82
0
0
41
0
0
106
0
0
156
0
0
57
0
0
57
0
0
82
0
0
57
0
0
82
0
0
57
0
0
41
0
0
57
0
0
106
0
0
57
0
0
65
0
0
32
0
0
106
0
0
106
0
0
57
0
0
82
0
0
57
0
0
41
0
0
65
0
0
65
0
0
65
0
0
82
0
0
131
0
0
65
0
0
41
0
0
82
0
0
106
0
0
82
0
0
106
0
0
57
0
0
57
0
0
65
0
0
57
0
0
32
0
0
65
0
0
106
0
0
82
0
0
41
0
0
106
0
0
156
0
0
57
0
0
57
0
0
82
0
0
57
0
0
82
0
0
82
0
0
57
0
0
57
0
0
82
0
0
41
0
0
57
0
0
82
0
0
57
0
0
106
0
0
57
0
0
41
0
0
57
0
0
32
0
0
82
0
0
106
0
0
106
0
0
41
0
0
106
0
0
131
0
0
65
0
0
82
0
0
82
0
0
82
0
0
82
0
0
57
0
0
65
0
0
57
0
0
65
0
0
82
0
0
57
0
0
41
0
0
131
0
0
65
0
0
65
0
0
41
0
0
65
0
0
57
0
0
57
0
0
82
0
0
41
0
0
82
0
0
57
0
0
57
0
0
82
0
0
41
0
0
57
0
0
82
0
0
57
0
0
106
0
0
57
0
0
41
0
0
57
0
0
32
0
0
82
0
0
106
0
0
106
0
0
41
0
0
106
0
0
131
0
0
65
0
0
82
0
0
82
0
0
82
0
0
82
0
0
65
0
0
82
0
0
57
0
0
65
0
0
65
0
0
65
0
0
82
0
0
41
0
0
106
0
0
106
0
0
32
0
0
106
0
0
82
0
0
106
0
0
32
0
0
106
0
0
106
0
0
41
0
0
57
0
0
57
0
0
106
0
0
82
0
0
57
0
0
106
0
0
57
0
0
82
0
0
41
0
0
41
0
0
106
0
0
57
0
0
57
0
0
106
0
0
41
0
0
82
0
0
32
0
0
57
0
0
65
0
0
57
0
0
106
0
0
82
0
0
65
0
0
82
0
0
57
0
0
65
0
0
65
0
0
65
0
0
82
0
0
41
0
0
106
0
0
106
0
0
32
0
0
106
0
0
82
0
0
106
0
0
32
0
0
106
0
0
106
0
0
41
0
0
57
0
0
57
0
0
106
0
0
82
0
0
57
0
0
106
0
0
82
0
0
82
0
0
57
0
0
106
0
0
82
0
0
106
0
0
82
0
0
57
0
0
131
0
0
57
0
0
57
0
0
106
0
0
65
0
0
106
0
0
57
0
0
41
0
0
82
0
0
57
0
0
82
0
0
57
0
0
41
0
0
156
0
0
41
0
0
65
0
0
82
0
0
57
0
0
82
0
0
65
0
0
106
0
0
65
0
0
65
0
0
57
0
0
57
0
0
106
0
0
57
0
0
82
0
0
57
0
0
106
0
0
82
0
0
57
0
0
106
0
0
106
0
0
32
0
0
106
0
0
82
0
0
57
0
0
82
0
0
131
0
0
57
0
0
57
0
0
65
0
0
57
0
0
82
0
0
106
0
0
65
0
0
82
0
0
82
0
0
57
0
0
65
0
0
65
0
0
65
0
0
82
0
0
65
0
0
57
0
0
65
0
0
106
0
0
82
0
0
82
0
0
106
0
0
82
0
0
57
0
0
82
0
0
106
0
0
41
0
0
65
0
0
82
0
0
106
0
0
41
0
0
106
0
0
41
0
0
106
0
0
106
0
0
57
0
0
65
0
0
57
0
0
82
0
0
41
0
0
41
0
0
82
0
0
82
0
0
82
0
0
65
0
0
57
0
0
106
0
0
57
0
0
57
0
0
106
0
0
65
0
0
82
0
0
106
0
0
82
0
0
57
0
0
57
0
0
57
0
0
106
0
0
82
0
0
57
0
0
131
0
0
82
0
0
106
0
0
106
0
0
106
0
0
57
0
0
106
0
0
106
0
0
106
0
0
65
0
0
65
0
0
82
0
0
82
0
0
57
0
0
106
0
0
65
0
0
41
0
0
82
0
0
65
0
0
106
0
0
82
0
0
106
0
0
106
0
0
57
0
0
106
0
0
106
0
0
57
0
0
82
0
0
65
0
0
65
0
0
57
0
0
57
0
0
57
0
0
106
0
0
82
0
0
65
0
0
57
0
0
65
0
0
65
0
0
82
0
0
82
0
0
106
0
0
57
0
0
65
0
0
57
0
0
57
0
0
65
0
0
82
0
0
65
0
0
106
0
0
106
0
0
65
0
0
57
0
0
57
0
0
106
0
0
57
0
0
106
0
0
57
0
0
41
0
0
57
0
0
82
0
0
106
0
0
82
0
0
82
0
0
65
0
0
106
0
0
82
0
0
41
0
0
106
0
0
106
0
0
106
0
0
106
0
0
57
0
0
82
0
0
82
0
0
57
0
0
82
0
0
82
0
0
82
0
0
82
0
0
65
0
0
82
0
0
57
0
0
57
0
0
65
0
0
106
0
0
65
0
0
65
0
0
106
0
0
82
0
0
82
0
0
82
0
0
65
0
0
106
0
0
82
0
0
41
0
0
57
0
0
82
0
0
131
0
0
41
0
0
82
0
0
106
0
0
106
0
0
41
0
0
57
0
0
106
0
0
57
0
0
65
0
0
82
0
0
57
0
0
57
0
0
57
0
0
41
0
0
65
0
0
106
0
0
41
0
0
82
0
0
65
0
0
106
0
0
41
0
0
156
0
0
41
0
0
106
0
0
65
0
0
106
0
0
82
0
0
106
0
0
57
0
0
65
0
0
106
0
0
82
0
0
82
0
0
106
0
0
57
0
0
106
0
0
106
0
0
65
0
0
57
0
0
82
0
0
65
0
0
82
0
0
57
0
0
57
0
0
57
0
0
65
0
0
65
0
0
65
0
0
106
0
0
65
