P3
# Created by GIMP version 2.10.12 PNM plug-in
64 64
255
57
57
57
57
57
57
65
65
65
57
57
57
57
57
57
57
57
57
57
57
57
57
57
57
57
57
57
49
49
49
32
32
32
32
32
32
32
32
32
49
49
49
57
57
57
57
57
57
57
57
57
57
57
57
49
49
49
57
57
57
57
57
57
49
49
49
57
57
57
57
57
57
57
57
57
57
57
57
57
57
57
57
57
57
57
57
57
49
49
49
57
57
57
65
65
65
57
57
57
65
65
65
57
57
57
57
57
57
57
57
57
57
57
57
57
57
57
65
65
65
65
65
65
57
57
57
32
32
32
57
57
57
65
65
65
57
57
57
65
65
65
65
65
65
65
65
65
65
65
65
65
65
65
65
65
65
65
65
65
65
65
65
65
65
65
57
57
57
57
57
57
57
57
57
65
65
65
57
57
57
57
57
57
65
65
65
65
65
65
57
57
57
57
57
57
57
57
57
65
65
65
65
65
65
57
57
57
65
65
65
65
65
65
57
57
57
57
57
57
49
49
49
32
32
32
32
32
32
32
32
32
49
49
49
57
57
57
57
57
57
57
57
57
57
57
57
57
57
57
57
57
57
57
57
57
57
57
57
49
49
49
57
57
57
57
57
57
57
57
57
65
65
65
65
65
65
57
57
57
57
57
57
65
65
65
65
65
65
65
65
65
65
65
65
57
57
57
57
57
57
57
57
57
57
57
57
57
57
57
65
65
65
57
57
57
57
57
57
82
82
82
65
65
65
65
65
65
65
65
65
65
65
65
65
65
65
65
65
65
65
65
65
65
65
65
65
65
65
65
65
65
65
65
65
65
65
65
57
57
57
57
57
57
57
57
57
65
65
65
57
57
57
57
57
57
65
65
65
65
65
65
57
57
57
57
57
57
57
57
57
65
65
65
65
65
65
57
57
57
65
65
65
65
65
65
57
57
57
57
57
57
49
49
49
32
32
32
32
32
32
32
32
32
49
49
49
57
57
57
57
57
57
57
57
57
57
57
57
57
57
57
57
57
57
57
57
57
49
49
49
57
57
57
57
57
57
57
57
57
57
57
57
65
65
65
65
65
65
57
57
57
57
57
57
57
57
57
65
65
65
65
65
65
65
65
65
57
57
57
57
57
57
57
57
57
57
57
57
57
57
57
65
65
65
57
57
57
57
57
57
57
57
57
57
57
57
65
65
65
65
65
65
65
65
65
65
65
65
57
57
57
65
65
65
65
65
65
65
65
65
65
65
65
65
65
65
65
65
65
57
57
57
57
57
57
57
57
57
65
65
65
57
57
57
57
57
57
65
65
65
65
65
65
57
57
57
57
57
57
57
57
57
65
65
65
57
57
57
57
57
57
57
57
57
65
65
65
57
57
57
57
57
57
49
49
49
32
32
32
32
32
32
32
32
32
49
49
49
57
57
57
57
57
57
57
57
57
57
57
57
57
57
57
57
57
57
57
57
57
32
32
32
49
49
49
49
49
49
57
57
57
57
57
57
65
65
65
57
57
57
57
57
57
57
57
57
57
57
57
65
65
65
65
65
65
65
65
65
57
57
57
57
57
57
57
57
57
57
57
57
57
57
57
65
65
65
57
57
57
57
57
57
57
57
57
57
57
57
65
65
65
49
49
49
65
65
65
65
65
65
65
65
65
65
65
65
65
65
65
65
65
65
65
65
65
65
65
65
65
65
65
57
57
57
57
57
57
57
57
57
65
65
65
57
57
57
57
57
57
65
65
65
65
65
65
57
57
57
57
57
57
57
57
57
65
65
65
57
57
57
57
57
57
65
65
65
65
65
65
57
57
57
57
57
57
49
49
49
32
32
32
32
32
32
32
32
32
49
49
49
57
57
57
57
57
57
57
57
57
57
57
57
57
57
57
57
57
57
57
57
57
49
49
49
57
57
57
57
57
57
57
57
57
57
57
57
65
65
65
57
57
57
57
57
57
57
57
57
57
57
57
65
65
65
65
65
65
65
65
65
57
57
57
57
57
57
57
57
57
57
57
57
57
57
57
65
65
65
57
57
57
57
57
57
57
57
57
57
57
57
65
65
65
65
65
65
65
65
65
65
65
65
65
65
65
65
65
65
65
65
65
65
65
65
65
65
65
65
65
65
65
65
65
57
57
57
57
57
57
57
57
57
65
65
65
57
57
57
57
57
57
65
65
65
65
65
65
57
57
57
57
57
57
57
57
57
57
57
57
57
57
57
57
57
57
65
65
65
65
65
65
49
49
49
57
57
57
49
49
49
32
32
32
32
32
32
32
32
32
49
49
49
57
57
57
57
57
57
57
57
57
57
57
57
57
57
57
57
57
57
57
57
57
49
49
49
57
57
57
57
57
57
57
57
57
57
57
57
57
57
57
57
57
57
57
57
57
57
57
57
57
57
57
65
65
65
65
65
65
65
65
65
57
57
57
57
57
57
57
57
57
57
57
57
57
57
57
65
65
65
57
57
57
57
57
57
57
57
57
57
57
57
57
57
57
65
65
65
65
65
65
65
65
65
65
65
65
65
65
65
65
65
65
65
65
65
65
65
65
65
65
65
65
65
65
57
57
57
57
57
57
57
57
57
65
65
65
57
57
57
57
57
57
65
65
65
65
65
65
57
57
57
57
57
57
57
57
57
65
65
65
57
57
57
57
57
57
65
65
65
65
65
65
57
57
57
57
57
57
49
49
49
32
32
32
32
32
32
32
32
32
49
49
49
57
57
57
57
57
57
57
57
57
57
57
57
57
57
57
57
57
57
57
57
57
49
49
49
49
49
49
57
57
57
57
57
57
57
57
57
49
49
49
57
57
57
57
57
57
57
57
57
57
57
57
65
65
65
65
65
65
65
65
65
57
57
57
57
57
57
57
57
57
57
57
57
57
57
57
65
65
65
57
57
57
57
57
57
57
57
57
57
57
57
57
57
57
65
65
65
65
65
65
57
57
57
65
65
65
65
65
65
65
65
65
65
65
65
65
65
65
65
65
65
65
65
65
65
65
65
57
57
57
57
57
57
65
65
65
57
57
57
57
57
57
65
65
65
65
65
65
65
65
65
57
57
57
65
65
65
57
57
57
57
57
57
57
57
57
57
57
57
65
65
65
57
57
57
57
57
57
49
49
49
32
32
32
32
32
32
32
32
32
49
49
49
57
57
57
57
57
57
57
57
57
57
57
57
57
57
57
57
57
57
57
57
57
57
57
57
57
57
57
57
57
57
57
57
57
65
65
65
49
49
49
57
57
57
57
57
57
57
57
57
57
57
57
65
65
65
57
57
57
65
65
65
57
57
57
57
57
57
65
65
65
57
57
57
57
57
57
65
65
65
57
57
57
57
57
57
57
57
57
57
57
57
57
57
57
65
65
65
65
65
65
65
65
65
65
65
65
65
65
65
65
65
65
57
57
57
65
65
65
65
65
65
65
65
65
65
65
65
57
57
57
65
65
65
65
65
65
57
57
57
57
57
57
57
57
57
65
65
65
65
65
65
57
57
57
65
65
65
65
65
65
65
65
65
57
57
57
65
65
65
65
65
65
57
57
57
57
57
57
49
49
49
32
32
32
32
32
32
32
32
32
49
49
49
57
57
57
57
57
57
57
57
57
57
57
57
57
57
57
57
57
57
57
57
57
57
57
57
65
65
65
57
57
57
57
57
57
65
65
65
49
49
49
65
65
65
57
57
57
57
57
57
65
65
65
65
65
65
57
57
57
57
57
57
57
57
57
57
57
57
65
65
65
65
65
65
57
57
57
65
65
65
57
57
57
57
57
57
57
57
57
57
57
57
57
57
57
65
65
65
65
65
65
57
57
57
65
65
65
82
82
82
65
65
65
65
65
65
65
65
65
65
65
65
65
65
65
65
65
65
57
57
57
65
65
65
65
65
65
65
65
65
57
57
57
65
65
65
65
65
65
65
65
65
57
57
57
65
65
65
57
57
57
65
65
65
57
57
57
57
57
57
57
57
57
57
57
57
57
57
57
49
49
49
32
32
32
32
32
32
32
32
32
49
49
49
57
57
57
57
57
57
57
57
57
49
49
49
57
57
57
57
57
57
57
57
57
49
49
49
57
57
57
49
49
49
57
57
57
65
65
65
49
49
49
65
65
65
57
57
57
57
57
57
57
57
57
65
65
65
65
65
65
57
57
57
57
57
57
65
65
65
57
57
57
57
57
57
57
57
57
57
57
57
57
57
57
57
57
57
57
57
57
65
65
65
57
57
57
65
65
65
57
57
57
57
57
57
65
65
65
82
82
82
65
65
65
65
65
65
65
65
65
65
65
65
65
65
65
65
65
65
57
57
57
65
65
65
65
65
65
65
65
65
57
57
57
57
57
57
57
57
57
65
65
65
57
57
57
65
65
65
65
65
65
65
65
65
57
57
57
65
65
65
65
65
65
57
57
57
57
57
57
49
49
49
32
32
32
32
32
32
32
32
32
49
49
49
57
57
57
57
57
57
65
65
65
57
57
57
49
49
49
57
57
57
57
57
57
49
49
49
49
49
49
57
57
57
57
57
57
65
65
65
57
57
57
65
65
65
57
57
57
57
57
57
65
65
65
65
65
65
57
57
57
57
57
57
57
57
57
57
57
57
65
65
65
57
57
57
57
57
57
57
57
57
57
57
57
57
57
57
57
57
57
65
65
65
57
57
57
65
65
65
57
57
57
57
57
57
65
65
65
82
82
82
82
82
82
82
82
82
65
65
65
65
65
65
65
65
65
65
65
65
57
57
57
65
65
65
65
65
65
65
65
65
57
57
57
65
65
65
65
65
65
65
65
65
57
57
57
65
65
65
57
57
57
57
57
57
57
57
57
57
57
57
65
65
65
57
57
57
57
57
57
49
49
49
32
32
32
32
32
32
32
32
32
49
49
49
57
57
57
57
57
57
57
57
57
57
57
57
49
49
49
57
57
57
57
57
57
49
49
49
49
49
49
49
49
49
57
57
57
65
65
65
57
57
57
65
65
65
57
57
57
57
57
57
49
49
49
57
57
57
49
49
49
49
49
49
57
57
57
65
65
65
57
57
57
57
57
57
57
57
57
57
57
57
32
32
32
57
57
57
57
57
57
49
49
49
57
57
57
57
57
57
57
57
57
57
57
57
65
65
65
82
82
82
82
82
82
82
82
82
65
65
65
65
65
65
65
65
65
65
65
65
57
57
57
65
65
65
65
65
65
65
65
65
57
57
57
65
65
65
65
65
65
65
65
65
49
49
49
49
49
49
49
49
49
49
49
49
49
49
49
49
49
49
49
49
49
49
49
49
49
49
49
49
49
49
32
32
32
32
32
32
32
32
32
49
49
49
57
57
57
49
49
49
49
49
49
49
49
49
49
49
49
49
49
49
49
49
49
49
49
49
49
49
49
49
49
49
49
49
49
49
49
49
49
49
49
49
49
49
49
49
49
49
49
49
49
49
49
49
49
49
49
49
49
49
49
49
49
49
49
49
49
49
49
49
49
49
49
49
49
49
49
49
49
49
49
49
49
49
49
49
49
49
49
49
49
49
49
49
49
49
49
49
49
49
49
49
49
49
49
49
49
49
49
49
49
49
49
49
49
49
49
49
49
49
49
49
49
49
49
49
49
49
49
49
49
49
49
49
49
49
49
49
49
49
49
49
49
49
49
49
49
49
49
49
49
49
32
32
32
32
32
32
32
32
32
32
32
32
32
32
32
32
32
32
32
32
32
32
32
32
32
32
32
32
32
32
32
32
32
32
32
32
16
16
16
32
32
32
32
32
32
32
32
32
32
32
32
32
32
32
32
32
32
32
32
32
32
32
32
32
32
32
32
32
32
32
32
32
32
32
32
32
32
32
32
32
32
32
32
32
32
32
32
32
32
32
32
32
32
32
32
32
32
32
32
32
32
32
32
32
32
32
32
32
32
32
32
32
32
32
32
32
32
32
32
32
32
32
32
32
32
32
32
32
32
32
32
32
32
32
32
32
32
32
32
32
32
32
32
32
32
32
32
49
49
49
49
49
49
49
49
49
32
32
32
32
32
32
32
32
32
32
32
32
32
32
32
32
32
32
32
32
32
32
32
32
32
32
32
32
32
32
32
32
32
32
32
32
32
32
32
32
32
32
32
32
32
32
32
32
32
32
32
32
32
32
32
32
32
32
32
32
32
32
32
32
32
32
32
32
32
32
32
32
32
32
32
32
32
32
32
32
32
32
32
32
32
32
32
32
32
32
32
32
32
32
32
32
32
32
32
32
32
32
32
32
32
32
32
32
32
32
32
32
32
32
32
32
32
32
32
32
32
32
32
32
32
32
32
32
32
32
32
32
32
32
32
32
32
32
32
32
32
32
32
32
32
32
32
32
32
32
32
32
32
32
32
32
32
32
32
32
32
32
32
32
32
32
32
32
32
32
32
32
32
32
32
32
32
32
32
32
32
32
32
32
32
32
32
32
32
32
32
32
32
32
32
32
32
32
32
32
32
32
32
32
32
32
32
32
32
32
32
32
32
32
32
32
32
32
32
32
32
32
32
32
32
32
32
32
32
32
32
32
32
32
32
32
32
32
32
32
32
32
32
32
32
32
32
32
32
32
32
32
32
32
32
32
32
32
32
32
32
32
32
32
32
32
32
32
32
32
32
32
32
32
32
32
32
32
32
32
32
32
32
32
32
32
32
32
32
32
32
32
32
32
32
32
32
32
32
32
32
32
32
32
32
32
32
32
32
32
32
32
32
32
32
32
32
32
32
32
32
32
32
32
32
32
32
32
32
32
32
32
32
32
32
32
32
32
32
32
32
32
32
32
32
32
32
32
32
32
32
32
32
32
32
32
32
32
32
32
32
32
32
32
32
32
32
32
32
32
32
32
32
32
32
32
32
32
32
32
32
32
32
32
32
32
32
32
32
32
32
32
32
32
32
32
32
32
32
32
32
32
32
32
32
32
32
32
32
32
32
32
32
32
32
32
32
49
49
49
65
65
65
65
65
65
65
65
65
65
65
65
65
65
65
65
65
65
65
65
65
65
65
65
57
57
57
57
57
57
65
65
65
65
65
65
57
57
57
65
65
65
65
65
65
65
65
65
57
57
57
65
65
65
57
57
57
57
57
57
57
57
57
57
57
57
57
57
57
57
57
57
65
65
65
65
65
65
57
57
57
65
65
65
65
65
65
65
65
65
57
57
57
65
65
65
57
57
57
57
57
57
57
57
57
57
57
57
57
57
57
57
57
57
57
57
57
57
57
57
57
57
57
57
57
57
57
57
57
57
57
57
57
57
57
57
57
57
65
65
65
65
65
65
57
57
57
65
65
65
65
65
65
65
65
65
57
57
57
65
65
65
57
57
57
57
57
57
49
49
49
32
32
32
32
32
32
32
32
32
49
49
49
65
65
65
65
65
65
65
65
65
57
57
57
57
57
57
49
49
49
57
57
57
57
57
57
57
57
57
65
65
65
65
65
65
49
49
49
32
32
32
57
57
57
57
57
57
49
49
49
57
57
57
57
57
57
49
49
49
49
49
49
57
57
57
49
49
49
57
57
57
57
57
57
49
49
49
49
49
49
32
32
32
57
57
57
57
57
57
49
49
49
57
57
57
57
57
57
49
49
49
49
49
49
57
57
57
49
49
49
49
49
49
57
57
57
65
65
65
57
57
57
57
57
57
57
57
57
57
57
57
57
57
57
57
57
57
57
57
57
65
65
65
49
49
49
32
32
32
57
57
57
65
65
65
57
57
57
57
57
57
57
57
57
49
49
49
49
49
49
57
57
57
49
49
49
49
49
49
49
49
49
32
32
32
32
32
32
32
32
32
49
49
49
57
57
57
65
65
65
65
65
65
57
57
57
57
57
57
57
57
57
65
65
65
57
57
57
65
65
65
65
65
65
65
65
65
57
57
57
57
57
57
57
57
57
65
65
65
49
49
49
65
65
65
57
57
57
49
49
49
65
65
65
65
65
65
49
49
49
57
57
57
57
57
57
49
49
49
57
57
57
57
57
57
57
57
57
65
65
65
49
49
49
65
65
65
57
57
57
49
49
49
65
65
65
65
65
65
57
57
57
57
57
57
65
65
65
57
57
57
57
57
57
57
57
57
57
57
57
65
65
65
57
57
57
57
57
57
65
65
65
57
57
57
57
57
57
57
57
57
65
65
65
65
65
65
57
57
57
57
57
57
57
57
57
49
49
49
65
65
65
65
65
65
57
57
57
57
57
57
49
49
49
32
32
32
32
32
32
32
32
32
49
49
49
65
65
65
65
65
65
65
65
65
57
57
57
65
65
65
65
65
65
65
65
65
57
57
57
57
57
57
57
57
57
65
65
65
49
49
49
57
57
57
57
57
57
65
65
65
65
65
65
65
65
65
57
57
57
49
49
49
49
49
49
65
65
65
49
49
49
57
57
57
57
57
57
32
32
32
49
49
49
57
57
57
57
57
57
65
65
65
65
65
65
65
65
65
57
57
57
49
49
49
49
49
49
65
65
65
65
65
65
65
65
65
57
57
57
57
57
57
65
65
65
57
57
57
57
57
57
57
57
57
57
57
57
57
57
57
57
57
57
57
57
57
49
49
49
57
57
57
57
57
57
65
65
65
57
57
57
57
57
57
57
57
57
49
49
49
49
49
49
65
65
65
65
65
65
65
65
65
49
49
49
32
32
32
32
32
32
32
32
32
49
49
49
65
65
65
65
65
65
65
65
65
57
57
57
65
65
65
57
57
57
65
65
65
57
57
57
65
65
65
57
57
57
65
65
65
49
49
49
57
57
57
57
57
57
57
57
57
49
49
49
57
57
57
65
65
65
57
57
57
49
49
49
65
65
65
49
49
49
57
57
57
65
65
65
57
57
57
49
49
49
57
57
57
49
49
49
57
57
57
49
49
49
65
65
65
65
65
65
57
57
57
49
49
49
65
65
65
57
57
57
57
57
57
57
57
57
65
65
65
65
65
65
57
57
57
57
57
57
57
57
57
57
57
57
57
57
57
57
57
57
65
65
65
49
49
49
57
57
57
65
65
65
65
65
65
57
57
57
57
57
57
57
57
57
57
57
57
49
49
49
65
65
65
57
57
57
57
57
57
49
49
49
32
32
32
32
32
32
32
32
32
49
49
49
65
65
65
57
57
57
65
65
65
57
57
57
65
65
65
57
57
57
65
65
65
57
57
57
57
57
57
65
65
65
65
65
65
49
49
49
57
57
57
49
49
49
49
49
49
57
57
57
57
57
57
57
57
57
57
57
57
49
49
49
65
65
65
49
49
49
57
57
57
57
57
57
49
49
49
49
49
49
57
57
57
57
57
57
65
65
65
57
57
57
49
49
49
57
57
57
57
57
57
49
49
49
65
65
65
57
57
57
57
57
57
57
57
57
65
65
65
65
65
65
57
57
57
57
57
57
65
65
65
57
57
57
57
57
57
57
57
57
65
65
65
49
49
49
57
57
57
57
57
57
65
65
65
57
57
57
57
57
57
57
57
57
57
57
57
49
49
49
65
65
65
57
57
57
57
57
57
49
49
49
32
32
32
32
32
32
32
32
32
49
49
49
65
65
65
57
57
57
65
65
65
57
57
57
65
65
65
57
57
57
65
65
65
57
57
57
65
65
65
65
65
65
65
65
65
49
49
49
57
57
57
57
57
57
57
57
57
57
57
57
57
57
57
57
57
57
57
57
57
49
49
49
65
65
65
49
49
49
49
49
49
57
57
57
49
49
49
49
49
49
57
57
57
65
65
65
65
65
65
65
65
65
57
57
57
57
57
57
57
57
57
49
49
49
65
65
65
57
57
57
57
57
57
57
57
57
57
57
57
65
65
65
57
57
57
57
57
57
57
57
57
57
57
57
57
57
57
65
65
65
57
57
57
49
49
49
57
57
57
57
57
57
65
65
65
57
57
57
57
57
57
57
57
57
57
57
57
49
49
49
65
65
65
57
57
57
57
57
57
49
49
49
32
32
32
32
32
32
32
32
32
49
49
49
65
65
65
65
65
65
65
65
65
57
57
57
57
57
57
57
57
57
65
65
65
57
57
57
57
57
57
65
65
65
65
65
65
49
49
49
57
57
57
57
57
57
49
49
49
57
57
57
57
57
57
57
57
57
57
57
57
49
49
49
65
65
65
57
57
57
57
57
57
57
57
57
57
57
57
49
49
49
57
57
57
57
57
57
65
65
65
65
65
65
65
65
65
57
57
57
57
57
57
49
49
49
65
65
65
57
57
57
57
57
57
57
57
57
57
57
57
65
65
65
57
57
57
57
57
57
57
57
57
57
57
57
57
57
57
65
65
65
57
57
57
49
49
49
57
57
57
65
65
65
65
65
65
57
57
57
57
57
57
57
57
57
57
57
57
49
49
49
65
65
65
57
57
57
57
57
57
49
49
49
32
32
32
32
32
32
32
32
32
49
49
49
65
65
65
65
65
65
65
65
65
57
57
57
57
57
57
57
57
57
57
57
57
57
57
57
57
57
57
57
57
57
65
65
65
57
57
57
57
57
57
57
57
57
57
57
57
57
57
57
57
57
57
57
57
57
57
57
57
57
57
57
65
65
65
49
49
49
49
49
49
49
49
49
49
49
49
57
57
57
57
57
57
57
57
57
57
57
57
49
49
49
65
65
65
57
57
57
57
57
57
57
57
57
65
65
65
57
57
57
57
57
57
57
57
57
57
57
57
65
65
65
57
57
57
57
57
57
57
57
57
57
57
57
57
57
57
65
65
65
57
57
57
57
57
57
57
57
57
65
65
65
65
65
65
65
65
65
57
57
57
57
57
57
57
57
57
57
57
57
65
65
65
57
57
57
57
57
57
49
49
49
32
32
32
32
32
32
32
32
32
49
49
49
65
65
65
65
65
65
65
65
65
57
57
57
65
65
65
57
57
57
57
57
57
57
57
57
57
57
57
57
57
57
65
65
65
57
57
57
57
57
57
57
57
57
49
49
49
57
57
57
57
57
57
57
57
57
57
57
57
57
57
57
65
65
65
32
32
32
49
49
49
57
57
57
57
57
57
57
57
57
57
57
57
57
57
57
65
65
65
49
49
49
65
65
65
57
57
57
57
57
57
57
57
57
65
65
65
57
57
57
57
57
57
57
57
57
57
57
57
65
65
65
57
57
57
57
57
57
57
57
57
57
57
57
57
57
57
65
65
65
57
57
57
57
57
57
57
57
57
57
57
57
65
65
65
65
65
65
57
57
57
57
57
57
57
57
57
57
57
57
65
65
65
57
57
57
57
57
57
49
49
49
32
32
32
32
32
32
32
32
32
49
49
49
65
65
65
57
57
57
65
65
65
57
57
57
65
65
65
57
57
57
57
57
57
65
65
65
65
65
65
57
57
57
65
65
65
57
57
57
57
57
57
57
57
57
49
49
49
57
57
57
57
57
57
57
57
57
57
57
57
57
57
57
65
65
65
32
32
32
49
49
49
57
57
57
49
49
49
57
57
57
57
57
57
57
57
57
65
65
65
82
82
82
65
65
65
57
57
57
57
57
57
57
57
57
65
65
65
57
57
57
57
57
57
57
57
57
57
57
57
65
65
65
57
57
57
57
57
57
65
65
65
57
57
57
57
57
57
65
65
65
57
57
57
57
57
57
57
57
57
57
57
57
65
65
65
57
57
57
57
57
57
57
57
57
57
57
57
57
57
57
65
65
65
57
57
57
57
57
57
49
49
49
32
32
32
32
32
32
32
32
32
49
49
49
65
65
65
57
57
57
65
65
65
57
57
57
65
65
65
65
65
65
57
57
57
65
65
65
65
65
65
57
57
57
57
57
57
57
57
57
57
57
57
57
57
57
49
49
49
57
57
57
57
57
57
57
57
57
57
57
57
57
57
57
65
65
65
49
49
49
57
57
57
57
57
57
57
57
57
57
57
57
57
57
57
57
57
57
65
65
65
65
65
65
65
65
65
57
57
57
57
57
57
57
57
57
65
65
65
57
57
57
57
57
57
57
57
57
57
57
57
65
65
65
57
57
57
57
57
57
57
57
57
65
65
65
57
57
57
65
65
65
57
57
57
57
57
57
57
57
57
57
57
57
65
65
65
57
57
57
57
57
57
57
57
57
57
57
57
57
57
57
65
65
65
57
57
57
57
57
57
49
49
49
32
32
32
32
32
32
32
32
32
49
49
49
65
65
65
57
57
57
57
57
57
57
57
57
57
57
57
65
65
65
57
57
57
57
57
57
65
65
65
65
65
65
57
57
57
57
57
57
57
57
57
49
49
49
49
49
49
57
57
57
57
57
57
57
57
57
57
57
57
65
65
65
65
65
65
57
57
57
49
49
49
57
57
57
49
49
49
57
57
57
57
57
57
57
57
57
57
57
57
65
65
65
65
65
65
57
57
57
57
57
57
65
65
65
65
65
65
57
57
57
57
57
57
57
57
57
65
65
65
65
65
65
57
57
57
57
57
57
57
57
57
65
65
65
57
57
57
65
65
65
57
57
57
57
57
57
57
57
57
57
57
57
65
65
65
57
57
57
57
57
57
57
57
57
57
57
57
65
65
65
65
65
65
57
57
57
57
57
57
49
49
49
32
32
32
32
32
32
32
32
32
49
49
49
65
65
65
65
65
65
57
57
57
57
57
57
57
57
57
57
57
57
57
57
57
57
57
57
65
65
65
65
65
65
57
57
57
57
57
57
57
57
57
57
57
57
57
57
57
57
57
57
57
57
57
57
57
57
57
57
57
65
65
65
65
65
65
49
49
49
49
49
49
57
57
57
49
49
49
57
57
57
57
57
57
57
57
57
57
57
57
65
65
65
65
65
65
57
57
57
57
57
57
65
65
65
65
65
65
57
57
57
57
57
57
65
65
65
57
57
57
65
65
65
57
57
57
57
57
57
57
57
57
65
65
65
57
57
57
65
65
65
57
57
57
57
57
57
57
57
57
65
65
65
65
65
65
57
57
57
57
57
57
57
57
57
57
57
57
65
65
65
65
65
65
57
57
57
57
57
57
49
49
49
32
32
32
32
32
32
32
32
32
49
49
49
65
65
65
65
65
65
57
57
57
57
57
57
57
57
57
57
57
57
57
57
57
57
57
57
65
65
65
65
65
65
57
57
57
57
57
57
57
57
57
57
57
57
49
49
49
57
57
57
57
57
57
57
57
57
57
57
57
65
65
65
65
65
65
49
49
49
57
57
57
57
57
57
49
49
49
57
57
57
57
57
57
57
57
57
57
57
57
65
65
65
65
65
65
57
57
57
57
57
57
65
65
65
65
65
65
57
57
57
65
65
65
57
57
57
65
65
65
65
65
65
57
57
57
57
57
57
57
57
57
65
65
65
57
57
57
65
65
65
57
57
57
57
57
57
57
57
57
65
65
65
65
65
65
57
57
57
57
57
57
57
57
57
57
57
57
65
65
65
65
65
65
57
57
57
65
65
65
49
49
49
32
32
32
32
32
32
32
32
32
49
49
49
65
65
65
65
65
65
57
57
57
57
57
57
57
57
57
57
57
57
57
57
57
57
57
57
65
65
65
65
65
65
57
57
57
57
57
57
57
57
57
57
57
57
57
57
57
57
57
57
57
57
57
57
57
57
57
57
57
65
65
65
65
65
65
57
57
57
49
49
49
49
49
49
49
49
49
57
57
57
57
57
57
57
57
57
49
49
49
49
49
49
65
65
65
57
57
57
57
57
57
65
65
65
65
65
65
57
57
57
49
49
49
57
57
57
57
57
57
65
65
65
57
57
57
57
57
57
57
57
57
65
65
65
57
57
57
65
65
65
57
57
57
57
57
57
57
57
57
57
57
57
65
65
65
65
65
65
57
57
57
57
57
57
57
57
57
65
65
65
65
65
65
57
57
57
49
49
49
49
49
49
32
32
32
32
32
32
32
32
32
49
49
49
65
65
65
65
65
65
65
65
65
57
57
57
57
57
57
57
57
57
57
57
57
57
57
57
65
65
65
57
57
57
65
65
65
57
57
57
57
57
57
57
57
57
57
57
57
57
57
57
57
57
57
57
57
57
57
57
57
65
65
65
65
65
65
57
57
57
57
57
57
57
57
57
57
57
57
57
57
57
57
57
57
57
57
57
65
65
65
65
65
65
49
49
49
57
57
57
57
57
57
65
65
65
65
65
65
57
57
57
49
49
49
49
49
49
57
57
57
65
65
65
57
57
57
57
57
57
57
57
57
65
65
65
57
57
57
65
65
65
57
57
57
57
57
57
57
57
57
57
57
57
65
65
65
65
65
65
57
57
57
57
57
57
57
57
57
65
65
65
65
65
65
57
57
57
49
49
49
49
49
49
32
32
32
32
32
32
32
32
32
49
49
49
65
65
65
57
57
57
65
65
65
57
57
57
57
57
57
65
65
65
57
57
57
57
57
57
65
65
65
57
57
57
65
65
65
57
57
57
57
57
57
57
57
57
49
49
49
57
57
57
57
57
57
57
57
57
57
57
57
65
65
65
65
65
65
57
57
57
57
57
57
57
57
57
49
49
49
57
57
57
57
57
57
57
57
57
49
49
49
49
49
49
49
49
49
57
57
57
57
57
57
65
65
65
65
65
65
65
65
65
65
65
65
65
65
65
65
65
65
65
65
65
57
57
57
57
57
57
57
57
57
65
65
65
57
57
57
65
65
65
57
57
57
57
57
57
57
57
57
57
57
57
49
49
49
49
49
49
49
49
49
57
57
57
57
57
57
65
65
65
65
65
65
65
65
65
65
65
65
49
49
49
32
32
32
32
32
32
32
32
32
49
49
49
57
57
57
57
57
57
65
65
65
57
57
57
57
57
57
57
57
57
57
57
57
57
57
57
57
57
57
65
65
65
65
65
65
57
57
57
57
57
57
57
57
57
49
49
49
57
57
57
57
57
57
57
57
57
57
57
57
65
65
65
65
65
65
57
57
57
49
49
49
57
57
57
57
57
57
57
57
57
57
57
57
57
57
57
49
49
49
49
49
49
49
49
49
57
57
57
57
57
57
65
65
65
65
65
65
57
57
57
57
57
57
57
57
57
65
65
65
65
65
65
65
65
65
57
57
57
57
57
57
65
65
65
65
65
65
65
65
65
57
57
57
57
57
57
57
57
57
57
57
57
49
49
49
49
49
49
49
49
49
57
57
57
57
57
57
65
65
65
65
65
65
57
57
57
57
57
57
49
49
49
32
32
32
32
32
32
32
32
32
49
49
49
57
57
57
65
65
65
65
65
65
57
57
57
57
57
57
65
65
65
57
57
57
57
57
57
57
57
57
57
57
57
65
65
65
57
57
57
57
57
57
57
57
57
49
49
49
57
57
57
57
57
57
57
57
57
57
57
57
65
65
65
65
65
65
57
57
57
49
49
49
57
57
57
57
57
57
57
57
57
57
57
57
57
57
57
49
49
49
49
49
49
49
49
49
57
57
57
57
57
57
65
65
65
65
65
65
65
65
65
57
57
57
32
32
32
57
57
57
65
65
65
65
65
65
57
57
57
57
57
57
65
65
65
65
65
65
65
65
65
57
57
57
57
57
57
57
57
57
57
57
57
49
49
49
49
49
49
49
49
49
57
57
57
57
57
57
65
65
65
65
65
65
65
65
65
57
57
57
49
49
49
32
32
32
32
32
32
32
32
32
49
49
49
57
57
57
57
57
57
65
65
65
57
57
57
57
57
57
57
57
57
57
57
57
57
57
57
65
65
65
57
57
57
65
65
65
57
57
57
57
57
57
57
57
57
49
49
49
57
57
57
57
57
57
57
57
57
57
57
57
65
65
65
65
65
65
49
49
49
49
49
49
57
57
57
49
49
49
57
57
57
57
57
57
49
49
49
65
65
65
65
65
65
49
49
49
57
57
57
57
57
57
65
65
65
65
65
65
57
57
57
65
65
65
65
65
65
57
57
57
65
65
65
57
57
57
57
57
57
57
57
57
65
65
65
57
57
57
65
65
65
57
57
57
57
57
57
57
57
57
49
49
49
65
65
65
65
65
65
49
49
49
57
57
57
57
57
57
65
65
65
65
65
65
57
57
57
65
65
65
49
49
49
32
32
32
32
32
32
32
32
32
49
49
49
57
57
57
57
57
57
57
57
57
57
57
57
57
57
57
65
65
65
57
57
57
57
57
57
65
65
65
57
57
57
65
65
65
57
57
57
57
57
57
65
65
65
57
57
57
57
57
57
57
57
57
57
57
57
57
57
57
65
65
65
65
65
65
57
57
57
49
49
49
57
57
57
49
49
49
57
57
57
57
57
57
57
57
57
49
49
49
49
49
49
65
65
65
57
57
57
57
57
57
65
65
65
65
65
65
57
57
57
57
57
57
57
57
57
57
57
57
65
65
65
57
57
57
57
57
57
57
57
57
65
65
65
57
57
57
65
65
65
57
57
57
57
57
57
57
57
57
57
57
57
49
49
49
49
49
49
65
65
65
57
57
57
57
57
57
65
65
65
65
65
65
57
57
57
57
57
57
49
49
49
32
32
32
32
32
32
32
32
32
49
49
49
57
57
57
57
57
57
65
65
65
57
57
57
57
57
57
57
57
57
57
57
57
57
57
57
65
65
65
57
57
57
65
65
65
57
57
57
57
57
57
57
57
57
57
57
57
57
57
57
57
57
57
57
57
57
57
57
57
65
65
65
65
65
65
49
49
49
57
57
57
57
57
57
49
49
49
57
57
57
57
57
57
57
57
57
49
49
49
49
49
49
57
57
57
57
57
57
57
57
57
65
65
65
65
65
65
57
57
57
57
57
57
57
57
57
57
57
57
65
65
65
57
57
57
57
57
57
57
57
57
65
65
65
57
57
57
57
57
57
57
57
57
57
57
57
57
57
57
57
57
57
49
49
49
49
49
49
57
57
57
57
57
57
57
57
57
65
65
65
65
65
65
57
57
57
57
57
57
49
49
49
32
32
32
32
32
32
32
32
32
49
49
49
57
57
57
57
57
57
65
65
65
57
57
57
57
57
57
57
57
57
57
57
57
57
57
57
57
57
57
65
65
65
65
65
65
57
57
57
57
57
57
57
57
57
57
57
57
57
57
57
57
57
57
57
57
57
49
49
49
65
65
65
65
65
65
49
49
49
57
57
57
57
57
57
49
49
49
57
57
57
57
57
57
57
57
57
49
49
49
49
49
49
57
57
57
57
57
57
49
49
49
65
65
65
65
65
65
57
57
57
57
57
57
57
57
57
65
65
65
65
65
65
57
57
57
57
57
57
57
57
57
65
65
65
57
57
57
57
57
57
65
65
65
57
57
57
57
57
57
57
57
57
49
49
49
49
49
49
57
57
57
57
57
57
49
49
49
65
65
65
65
65
65
57
57
57
57
57
57
49
49
49
32
32
32
32
32
32
32
32
32
49
49
49
65
65
65
65
65
65
65
65
65
57
57
57
57
57
57
65
65
65
57
57
57
57
57
57
65
65
65
65
65
65
65
65
65
57
57
57
57
57
57
49
49
49
49
49
49
65
65
65
57
57
57
65
65
65
65
65
65
65
65
65
65
65
65
49
49
49
57
57
57
65
65
65
57
57
57
57
57
57
57
57
57
49
49
49
49
49
49
65
65
65
57
57
57
65
65
65
65
65
65
65
65
65
65
65
65
57
57
57
57
57
57
57
57
57
65
65
65
65
65
65
57
57
57
57
57
57
57
57
57
65
65
65
57
57
57
57
57
57
65
65
65
57
57
57
57
57
57
49
49
49
49
49
49
65
65
65
57
57
57
65
65
65
65
65
65
65
65
65
65
65
65
57
57
57
57
57
57
49
49
49
32
32
32
32
32
32
32
32
32
49
49
49
57
57
57
65
65
65
65
65
65
57
57
57
57
57
57
57
57
57
57
57
57
57
57
57
57
57
57
57
57
57
65
65
65
57
57
57
57
57
57
49
49
49
49
49
49
49
49
49
57
57
57
57
57
57
49
49
49
65
65
65
65
65
65
49
49
49
57
57
57
57
57
57
57
57
57
57
57
57
57
57
57
49
49
49
49
49
49
49
49
49
57
57
57
57
57
57
49
49
49
65
65
65
65
65
65
57
57
57
57
57
57
57
57
57
57
57
57
65
65
65
65
65
65
57
57
57
57
57
57
65
65
65
57
57
57
57
57
57
57
57
57
57
57
57
57
57
57
49
49
49
49
49
49
49
49
49
57
57
57
57
57
57
49
49
49
65
65
65
65
65
65
57
57
57
57
57
57
49
49
49
32
32
32
32
32
32
32
32
32
49
49
49
65
65
65
65
65
65
65
65
65
57
57
57
57
57
57
57
57
57
57
57
57
57
57
57
57
57
57
57
57
57
57
57
57
57
57
57
57
57
57
57
57
57
49
49
49
65
65
65
49
49
49
57
57
57
57
57
57
65
65
65
65
65
65
49
49
49
49
49
49
57
57
57
57
57
57
57
57
57
57
57
57
57
57
57
49
49
49
65
65
65
49
49
49
57
57
57
57
57
57
65
65
65
65
65
65
57
57
57
57
57
57
57
57
57
57
57
57
65
65
65
65
65
65
57
57
57
57
57
57
65
65
65
65
65
65
65
65
65
57
57
57
57
57
57
57
57
57
57
57
57
49
49
49
65
65
65
49
49
49
57
57
57
57
57
57
65
65
65
65
65
65
57
57
57
57
57
57
49
49
49
32
32
32
32
32
32
32
32
32
49
49
49
57
57
57
65
65
65
65
65
65
57
57
57
57
57
57
57
57
57
57
57
57
57
57
57
57
57
57
57
57
57
57
57
57
57
57
57
57
57
57
57
57
57
65
65
65
49
49
49
49
49
49
57
57
57
57
57
57
65
65
65
65
65
65
49
49
49
49
49
49
57
57
57
57
57
57
57
57
57
57
57
57
57
57
57
65
65
65
49
49
49
49
49
49
57
57
57
57
57
57
65
65
65
65
65
65
57
57
57
57
57
57
57
57
57
57
57
57
65
65
65
57
57
57
57
57
57
57
57
57
65
65
65
65
65
65
65
65
65
57
57
57
57
57
57
57
57
57
57
57
57
65
65
65
49
49
49
49
49
49
57
57
57
57
57
57
65
65
65
65
65
65
57
57
57
57
57
57
49
49
49
32
32
32
32
32
32
32
32
32
49
49
49
57
57
57
65
65
65
65
65
65
57
57
57
57
57
57
57
57
57
57
57
57
57
57
57
57
57
57
57
57
57
57
57
57
49
49
49
49
49
49
57
57
57
49
49
49
49
49
49
49
49
49
57
57
57
57
57
57
57
57
57
57
57
57
32
32
32
32
32
32
49
49
49
49
49
49
49
49
49
49
49
49
57
57
57
49
49
49
49
49
49
49
49
49
57
57
57
57
57
57
57
57
57
57
57
57
49
49
49
49
49
49
49
49
49
49
49
49
49
49
49
49
49
49
32
32
32
49
49
49
49
49
49
49
49
49
49
49
49
32
32
32
49
49
49
49
49
49
57
57
57
49
49
49
49
49
49
49
49
49
57
57
57
57
57
57
57
57
57
57
57
57
49
49
49
49
49
49
49
49
49
32
32
32
32
32
32
32
32
32
49
49
49
49
49
49
49
49
49
49
49
49
32
32
32
32
32
32
32
32
32
32
32
32
32
32
32
32
32
32
32
32
32
32
32
32
32
32
32
32
32
32
32
32
32
32
32
32
32
32
32
32
32
32
32
32
32
32
32
32
32
32
32
32
32
32
32
32
32
32
32
32
32
32
32
32
32
32
32
32
32
32
32
32
32
32
32
32
32
32
32
32
32
32
32
32
32
32
32
32
32
32
32
32
32
32
32
32
32
32
32
32
32
32
32
32
32
32
32
32
32
32
32
32
32
32
32
32
32
32
32
32
32
32
32
32
32
32
32
32
32
32
32
32
32
32
32
32
32
32
32
32
32
32
32
32
32
32
32
32
32
32
32
32
32
32
32
32
32
32
32
32
32
32
32
32
32
32
32
32
49
49
49
32
32
32
32
32
32
32
32
32
32
32
32
32
32
32
32
32
32
32
32
32
32
32
32
32
32
32
32
32
32
32
32
32
32
32
32
32
32
32
32
32
32
32
32
32
32
32
32
32
32
32
32
32
32
32
32
32
32
32
32
32
32
32
32
32
32
32
32
32
32
32
32
32
32
32
32
32
32
32
32
32
32
32
32
32
32
32
32
32
32
32
32
32
32
32
32
32
32
32
32
32
32
32
32
32
32
32
32
32
32
32
32
32
32
32
32
32
32
32
32
32
32
32
32
32
32
32
32
32
32
32
32
32
32
32
32
32
32
32
32
32
32
32
32
32
32
32
32
32
32
32
32
32
32
32
32
32
32
32
32
32
32
32
32
32
32
32
32
32
32
32
32
32
32
32
32
32
32
32
32
32
32
32
32
32
32
32
32
32
32
32
32
32
32
32
32
32
32
32
32
32
32
32
32
32
32
32
32
32
32
32
32
32
32
32
32
32
32
32
32
32
32
32
32
32
32
32
32
32
32
32
32
32
32
32
32
32
32
32
32
32
32
32
32
32
32
32
32
32
32
32
32
32
32
32
32
32
32
32
32
32
32
32
32
32
32
32
32
32
32
32
32
32
32
32
32
32
32
32
32
32
32
32
32
32
32
32
32
32
32
32
32
32
32
32
32
32
32
32
32
32
32
32
32
32
32
32
32
32
32
32
32
32
32
32
32
32
32
32
32
32
32
32
32
32
32
32
32
32
32
32
32
32
32
32
32
32
32
32
32
32
32
32
32
32
32
32
32
32
32
32
32
32
32
32
32
32
32
32
32
32
32
32
32
32
32
32
32
32
32
32
32
32
32
32
32
32
32
32
32
32
32
32
32
32
32
32
32
32
32
32
32
32
32
32
32
32
32
32
32
32
32
32
32
32
65
65
65
65
65
65
57
57
57
65
65
65
65
65
65
65
65
65
65
65
65
65
65
65
57
57
57
49
49
49
32
32
32
32
32
32
32
32
32
57
57
57
65
65
65
57
57
57
57
57
57
57
57
57
57
57
57
57
57
57
57
57
57
57
57
57
57
57
57
57
57
57
57
57
57
57
57
57
57
57
57
57
57
57
65
65
65
57
57
57
65
65
65
65
65
65
57
57
57
57
57
57
57
57
57
57
57
57
57
57
57
57
57
57
57
57
57
57
57
57
57
57
57
57
57
57
57
57
57
57
57
57
57
57
57
57
57
57
57
57
57
57
57
57
82
82
82
65
65
65
82
82
82
82
82
82
82
82
82
82
82
82
65
65
65
57
57
57
57
57
57
57
57
57
57
57
57
65
65
65
65
65
65
65
65
65
65
65
65
65
65
65
57
57
57
57
57
57
57
57
57
57
57
57
57
57
57
57
57
57
57
57
57
57
57
57
57
57
57
49
49
49
32
32
32
32
32
32
32
32
32
49
49
49
65
65
65
57
57
57
57
57
57
49
49
49
49
49
49
49
49
49
57
57
57
57
57
57
57
57
57
57
57
57
57
57
57
65
65
65
57
57
57
49
49
49
57
57
57
57
57
57
57
57
57
57
57
57
49
49
49
49
49
49
32
32
32
49
49
49
49
49
49
57
57
57
57
57
57
65
65
65
65
65
65
65
65
65
57
57
57
57
57
57
57
57
57
57
57
57
57
57
57
65
65
65
65
65
65
57
57
57
82
82
82
82
82
82
82
82
82
65
65
65
57
57
57
57
57
57
57
57
57
57
57
57
65
65
65
57
57
57
57
57
57
65
65
65
65
65
65
57
57
57
57
57
57
57
57
57
57
57
57
57
57
57
57
57
57
57
57
57
57
57
57
57
57
57
57
57
57
49
49
49
32
32
32
32
32
32
32
32
32
49
49
49
57
57
57
57
57
57
57
57
57
49
49
49
49
49
49
49
49
49
49
49
49
57
57
57
57
57
57
57
57
57
57
57
57
49
49
49
57
57
57
49
49
49
57
57
57
57
57
57
57
57
57
57
57
57
57
57
57
49
49
49
49
49
49
57
57
57
57
57
57
57
57
57
57
57
57
65
65
65
65
65
65
65
65
65
57
57
57
57
57
57
57
57
57
57
57
57
57
57
57
57
57
57
65
65
65
57
57
57
82
82
82
82
82
82
82
82
82
65
65
65
57
57
57
57
57
57
57
57
57
57
57
57
65
65
65
57
57
57
57
57
57
65
65
65
65
65
65
57
57
57
57
57
57
57
57
57
57
57
57
57
57
57
57
57
57
57
57
57
57
57
57
57
57
57
57
57
57
49
49
49
32
32
32
32
32
32
32
32
32
49
49
49
57
57
57
57
57
57
57
57
57
32
32
32
49
49
49
49
49
49
49
49
49
57
57
57
57
57
57
49
49
49
57
57
57
49
49
49
57
57
57
57
57
57
49
49
49
57
57
57
57
57
57
57
57
57
65
65
65
57
57
57
57
57
57
65
65
65
57
57
57
57
57
57
57
57
57
65
65
65
65
65
65
65
65
65
57
57
57
57
57
57
57
57
57
57
57
57
57
57
57
57
57
57
65
65
65
65
65
65
82
82
82
65
65
65
82
82
82
65
65
65
57
57
57
57
57
57
57
57
57
57
57
57
65
65
65
57
57
57
57
57
57
65
65
65
65
65
65
57
57
57
57
57
57
57
57
57
57
57
57
57
57
57
57
57
57
65
65
65
57
57
57
57
57
57
57
57
57
49
49
49
32
32
32
32
32
32
32
32
32
49
49
49
57
57
57
57
57
57
65
65
65
57
57
57
49
49
49
49
49
49
49
49
49
57
57
57
65
65
65
57
57
57
57
57
57
49
49
49
57
57
57
57
57
57
57
57
57
65
65
65
57
57
57
57
57
57
57
57
57
65
65
65
65
65
65
57
57
57
57
57
57
57
57
57
57
57
57
65
65
65
65
65
65
65
65
65
57
57
57
57
57
57
57
57
57
65
65
65
57
57
57
57
57
57
65
65
65
57
57
57
82
82
82
65
65
65
82
82
82
57
57
57
57
57
57
57
57
57
57
57
57
57
57
57
65
65
65
57
57
57
57
57
57
65
65
65
65
65
65
57
57
57
57
57
57
57
57
57
57
57
57
57
57
57
57
57
57
57
57
57
57
57
57
57
57
57
57
57
57
49
49
49
32
32
32
32
32
32
32
32
32
49
49
49
57
57
57
57
57
57
57
57
57
49
49
49
49
49
49
49
49
49
49
49
49
57
57
57
57
57
57
57
57
57
57
57
57
49
49
49
57
57
57
57
57
57
57
57
57
57
57
57
57
57
57
57
57
57
57
57
57
57
57
57
57
57
57
57
57
57
57
57
57
57
57
57
57
57
57
65
65
65
65
65
65
65
65
65
57
57
57
65
65
65
57
57
57
57
57
57
57
57
57
57
57
57
65
65
65
57
57
57
82
82
82
65
65
65
82
82
82
65
65
65
57
57
57
57
57
57
57
57
57
57
57
57
65
65
65
57
57
57
57
57
57
65
65
65
65
65
65
57
57
57
57
57
57
57
57
57
57
57
57
57
57
57
57
57
57
57
57
57
57
57
57
57
57
57
57
57
57
49
49
49
32
32
32
32
32
32
32
32
32
49
49
49
57
57
57
57
57
57
57
57
57
49
49
49
57
57
57
57
57
57
49
49
49
57
57
57
57
57
57
57
57
57
57
57
57
49
49
49
57
57
57
57
57
57
49
49
49
57
57
57
57
57
57
57
57
57
57
57
57
57
57
57
57
57
57
57
57
57
57
57
57
57
57
57
57
57
57
65
65
65
65
65
65
65
65
65
57
57
57
57
57
57
57
57
57
57
57
57
57
57
57
57
57
57
65
65
65
57
57
57
82
82
82
65
65
65
82
82
82
65
65
65
57
57
57
57
57
57
57
57
57
57
57
57
65
65
65
57
57
57
57
57
57
65
65
65
65
65
65
57
57
57
57
57
57
57
57
57
57
57
57
57
57
57
57
57
57
57
57
57
57
57
57
57
57
57
57
57
57
49
49
49
32
32
32
32
32
32
32
32
32
49
49
49
49
49
49
57
57
57
57
57
57
57
57
57
49
49
49
57
57
57
49
49
49
57
57
57
57
57
57
57
57
57
57
57
57
49
49
49
57
57
57
57
57
57
49
49
49
57
57
57
57
57
57
57
57
57
65
65
65
57
57
57
57
57
57
57
57
57
57
57
57
57
57
57
57
57
57
65
65
65
65
65
65
65
65
65
65
65
65
57
57
57
57
57
57
57
57
57
57
57
57
65
65
65
65
65
65
57
57
57
82
82
82
65
65
65
82
82
82
65
65
65
65
65
65
57
57
57
57
57
57
57
57
57
65
65
65
57
57
57
57
57
57
65
65
65
65
65
65
57
57
57
57
57
57
57
57
57
57
57
57
57
57
57
57
57
57
57
57
57
57
57
57
57
57
57
57
57
57
49
49
49
32
32
32
32
32
32
32
32
32
49
49
49
57
57
57
57
57
57
57
57
57
57
57
57
49
49
49
57
57
57
57
57
57
49
49
49
57
57
57
57
57
57
57
57
57
57
57
57
57
57
57
57
57
57
57
57
57
49
49
49
57
57
57
57
57
57
57
57
57
57
57
57
57
57
57
57
57
57
57
57
57
57
57
57
57
57
57
65
65
65
65
65
65
57
57
57
32
32
32
57
57
57
65
65
65
57
57
57
65
65
65
65
65
65
65
65
65
65
65
65
82
82
82
65
65
65
82
82
82
65
65
65
65
65
65
57
57
57
57
57
57
57
57
57
65
65
65
57
57
57
57
57
57
65
65
65
65
65
65
57
57
57
57
57
57
57
57
57
57
57
57
57
57
57
57
57
57
57
57
57
57
57
57
57
57
57
57
57
57
49
49
49
32
32
32
32
32
32
32
32
32
49
49
49
57
57
57
57
57
57
57
57
57
57
57
57
57
57
57
57
57
57
57
57
57
57
57
57
49
49
49
57
57
57
57
57
57
57
57
57
65
65
65
65
65
65
57
57
57
57
57
57
65
65
65
57
57
57
65
65
65
57
57
57
57
57
57
57
57
57
57
57
57
57
57
57
57
57
57
65
65
65
57
57
57
57
57
57
82
82
82
65
65
65
65
65
65
65
65
65
65
65
65
65
65
65
65
65
65
65
65
65
82
82
82
65
65
65
65
65
65
65
65
65
65
65
65
57
57
57
57
57
57
57
57
57
65
65
65
65
65
65
57
57
57
65
65
65
65
65
65
57
57
57
57
57
57
57
57
57
57
57
57
49
49
49
57
57
57
57
57
57
57
57
57
49
49
49
57
57
57
49
49
49
32
32
32
32
32
32
32
32
32
49
49
49
49
49
49
57
57
57
57
57
57
57
57
57
57
57
57
57
57
57
57
57
57
49
49
49
57
57
57
57
57
57
57
57
57
57
57
57
65
65
65
65
65
65
57
57
57
57
57
57
57
57
57
57
57
57
57
57
57
57
57
57
57
57
57
57
57
57
57
57
57
57
57
57
57
57
57
65
65
65
57
57
57
57
57
57
57
57
57
57
57
57
65
65
65
65
65
65
65
65
65
65
65
65
65
65
65
65
65
65
82
82
82
65
65
65
65
65
65
65
65
65
65
65
65
57
57
57
57
57
57
57
57
57
65
65
65
57
57
57
57
57
57
65
65
65
65
65
65
57
57
57
57
57
57
49
49
49
57
57
57
57
57
57
57
57
57
57
57
57
57
57
57
57
57
57
57
57
57
49
49
49
32
32
32
32
32
32
32
32
32
49
49
49
49
49
49
49
49
49
49
49
49
57
57
57
57
57
57
57
57
57
57
57
57
32
32
32
49
49
49
49
49
49
57
57
57
57
57
57
65
65
65
57
57
57
57
57
57
57
57
57
57
57
57
57
57
57
49
49
49
49
49
49
57
57
57
57
57
57
57
57
57
57
57
57
57
57
57
65
65
65
57
57
57
57
57
57
57
57
57
57
57
57
65
65
65
49
49
49
65
65
65
65
65
65
65
65
65
65
65
65
82
82
82
65
65
65
82
82
82
65
65
65
65
65
65
57
57
57
57
57
57
57
57
57
65
65
65
57
57
57
57
57
57
65
65
65
65
65
65
57
57
57
49
49
49
49
49
49
57
57
57
57
57
57
57
57
57
57
57
57
57
57
57
57
57
57
57
57
57
49
49
49
32
32
32
32
32
32
32
32
32
49
49
49
49
49
49
57
57
57
57
57
57
57
57
57
57
57
57
49
49
49
49
49
49
49
49
49
57
57
57
57
57
57
57
57
57
57
57
57
65
65
65
57
57
57
57
57
57
57
57
57
57
57
57
57
57
57
49
49
49
49
49
49
57
57
57
57
57
57
57
57
57
57
57
57
57
57
57
65
65
65
57
57
57
57
57
57
57
57
57
57
57
57
65
65
65
82
82
82
65
65
65
65
65
65
65
65
65
65
65
65
82
82
82
65
65
65
82
82
82
65
65
65
65
65
65
57
57
57
57
57
57
57
57
57
65
65
65
57
57
57
57
57
57
65
65
65
65
65
65
57
57
57
57
57
57
57
57
57
57
57
57
57
57
57
57
57
57
57
57
57
57
57
57
57
57
57
57
57
57
49
49
49
32
32
32
32
32
32
32
32
32
49
49
49
49
49
49
57
57
57
57
57
57
57
57
57
49
49
49
49
49
49
49
49
49
49
49
49
57
57
57
57
57
57
57
57
57
57
57
57
57
57
57
57
57
57
57
57
57
57
57
57
57
57
57
57
57
57
65
65
65
57
57
57
57
57
57
57
57
57
57
57
57
57
57
57
57
57
57
65
65
65
57
57
57
57
57
57
57
57
57
57
57
57
57
57
57
65
65
65
65
65
65
65
65
65
65
65
65
65
65
65
65
65
65
65
65
65
82
82
82
65
65
65
65
65
65
57
57
57
57
57
57
57
57
57
65
65
65
57
57
57
57
57
57
65
65
65
65
65
65
57
57
57
57
57
57
57
57
57
57
57
57
57
57
57
57
57
57
57
57
57
49
49
49
57
57
57
57
57
57
49
49
49
32
32
32
32
32
32
32
32
32
49
49
49
57
57
57
57
57
57
57
57
57
57
57
57
57
57
57
57
57
57
57
57
57
49
49
49
49
49
49
57
57
57
57
57
57
57
57
57
49
49
49
57
57
57
57
57
57
57
57
57
57
57
57
65
65
65
82
82
82
65
65
65
57
57
57
57
57
57
57
57
57
57
57
57
57
57
57
65
65
65
57
57
57
57
57
57
57
57
57
57
57
57
57
57
57
65
65
65
65
65
65
57
57
57
65
65
65
65
65
65
65
65
65
65
65
65
65
65
65
65
65
65
65
65
65
65
65
65
57
57
57
57
57
57
65
65
65
57
57
57
57
57
57
65
65
65
65
65
65
57
57
57
57
57
57
57
57
57
57
57
57
57
57
57
57
57
57
65
65
65
57
57
57
57
57
57
57
57
57
49
49
49
32
32
32
32
32
32
32
32
32
49
49
49
57
57
57
57
57
57
65
65
65
57
57
57
57
57
57
57
57
57
57
57
57
57
57
57
57
57
57
57
57
57
57
57
57
57
57
57
57
57
57
57
57
57
57
57
57
57
57
57
57
57
57
65
65
65
65
65
65
65
65
65
57
57
57
57
57
57
57
57
57
57
57
57
57
57
57
65
65
65
57
57
57
57
57
57
65
65
65
57
57
57
57
57
57
57
57
57
57
57
57
57
57
57
65
65
65
65
65
65
65
65
65
65
65
65
65
65
65
65
65
65
65
65
65
57
57
57
57
57
57
57
57
57
65
65
65
57
57
57
57
57
57
65
65
65
65
65
65
57
57
57
